<svg xmlns="http://www.w3.org/2000/svg" xmlns:xlink="http://www.w3.org/1999/xlink" version="1.1" id="bell" x="0px" y="0px" enable-background="new 0 0 800 800" xml:space="preserve" width="100%" height="100%"><g class="shape" style="-webkit-transform: matrix(0.030000, 0, 0, 0.030000, 0, 0);-moz-transform: matrix(0.030000, 0, 0, 0.030000, 0, 0);transform: matrix(0.030000, 0, 0, 0.030000, 0, 0);"><path fill="#a3a3a3" xmlns:default="http://www.w3.org/2000/svg" d="M639.7,524.1V306.2c0-110.3-74.5-204.1-173.8-231.7v-11c0-35.9-27.6-63.4-63.4-63.4S339,27.6,339,63.4v11  C234.1,99.3,156.9,193.1,156.9,306.2v220.7C110,560,82.4,601.4,82.4,645.5h634.5C722.4,601.4,694.8,557.2,639.7,524.1z"></path><path fill="#a3a3a3" xmlns:default="http://www.w3.org/2000/svg" d="M402.4,800c63.4,0,113.1-52.4,113.1-115.9h-229C286.6,747.6,339,800,402.4,800z"></path></g></svg>