<svg version="1.1" xmlns="http://www.w3.org/2000/svg" xmlns:xlink="http://www.w3.org/1999/xlink" x="0px" y="0px" width="100%" height="100%" xml:space="preserve"><path fill="#474747" d="M128,21.306c17.694,0,34.333,3.361,49.833,10.056c15.528,6.722,29.111,15.889,40.723,27.527 C230.167,70.5,239.333,84.083,246,99.583c6.667,15.556,10,32.111,10,49.723c0,7.083-0.667,14.277-1.973,21.639 c-1.305,7.361-3.222,14.583-5.722,21.639c-2.5,7.111-5.611,13.89-9.333,20.39c-3.723,6.472-7.89,12.389-12.528,17.75 c-2.083,2.639-4.777,3.972-8.027,3.972H37.583c-3.361,0-6.041-1.333-8.041-3.972c-4.806-5.361-9.028-11.278-12.653-17.75 c-3.639-6.5-6.708-13.278-9.194-20.39c-2.5-7.056-4.402-14.277-5.722-21.639C0.653,163.583,0,156.389,0,149.306 c0-17.723,3.333-34.278,10-49.778C16.681,84.056,25.819,70.5,37.444,58.889C49.069,47.25,62.639,38.083,78.153,31.361 C93.681,24.667,110.292,21.306,128,21.306z M37.306,165.25c4.444,0,8.222-1.556,11.306-4.667c3.083-3.056,4.625-6.833,4.625-11.277 s-1.556-8.194-4.694-11.223c-3.125-3.056-6.875-4.583-11.236-4.583c-4.444,0-8.194,1.527-11.236,4.583 c-3.042,3.028-4.556,6.778-4.556,11.223s1.514,8.222,4.556,11.277C29.111,163.694,32.861,165.25,37.306,165.25z M63.861,101.361 c4.444,0,8.264-1.583,11.444-4.778c3.167-3.166,4.764-6.972,4.764-11.416c0-4.445-1.597-8.195-4.764-11.25 c-3.181-3.028-7-4.556-11.444-4.556c-4.264,0-7.986,1.527-11.167,4.556c-3.181,3.055-4.764,6.805-4.764,11.25 c0,4.444,1.583,8.25,4.764,11.416C55.875,99.778,59.597,101.361,63.861,101.361z M142.152,170c0.375-1.277,1.07-3.75,2.111-7.5 c1.056-3.694,2.278-8.056,3.681-13c1.403-4.944,2.903-10.111,4.5-15.527c1.583-5.39,2.973-10.417,4.167-15.056 c1.166-4.611,2.166-8.611,3.056-11.973c0.833-3.361,1.277-5.306,1.277-5.861c0-2.055-0.777-3.889-2.389-5.444 c-1.583-1.527-3.417-2.306-5.5-2.306c-1.819,0-3.431,0.528-4.833,1.639c-1.417,1.083-2.39,2.5-2.931,4.222L126.903,165.5 c-3.542,0.194-6.889,0.973-10.07,2.389c-3.18,1.417-5.93,3.306-8.236,5.723c-2.319,2.416-4.139,5.194-5.444,8.361 c-1.32,3.194-1.986,6.555-1.986,10.083c0,7.444,2.611,13.75,7.833,18.917c5.222,5.194,11.556,7.777,19,7.777s13.777-2.583,19-7.777 c5.208-5.167,7.819-11.473,7.819-18.917c0-4.444-1.181-8.583-3.542-12.389C148.917,175.861,145.875,172.639,142.152,170z M128,42.806c-4.444,0-8.222,1.556-11.306,4.639c-3.083,3.083-4.625,6.861-4.625,11.306s1.542,8.194,4.625,11.222 c3.083,3.056,6.861,4.556,11.306,4.556s8.208-1.5,11.306-4.556c3.083-3.028,4.625-6.778,4.625-11.222s-1.542-8.222-4.625-11.306 C136.208,44.361,132.444,42.806,128,42.806z M175.944,85.167c0,4.444,1.556,8.222,4.75,11.305s6.973,4.611,11.444,4.611 c4.444,0,8.194-1.527,11.306-4.611c3.083-3.083,4.611-6.861,4.611-11.305c0-4.445-1.528-8.195-4.611-11.25 c-3.111-3.028-6.861-4.556-11.306-4.556c-4.472,0-8.25,1.527-11.444,4.556C177.5,76.972,175.944,80.722,175.944,85.167z M218.667,165.25c4.472,0,8.222-1.556,11.25-4.667c3.027-3.056,4.583-6.833,4.583-11.277s-1.556-8.194-4.583-11.223 c-3.028-3.056-6.778-4.583-11.25-4.583c-4.444,0-8.194,1.527-11.278,4.583c-3.111,3.028-4.639,6.778-4.639,11.223 s1.527,8.222,4.639,11.277C210.473,163.694,214.223,165.25,218.667,165.25z" class="shape" style="-webkit-transform: matrix(0.078125, 0, 0, 0.078125, 0, 0);-moz-transform: matrix(0.078125, 0, 0, 0.078125, 0, 0);transform: matrix(0.078125, 0, 0, 0.078125, 0, 0);"></path></svg>