<svg version="1.1" xmlns="http://www.w3.org/2000/svg" xmlns:xlink="http://www.w3.org/1999/xlink" x="0px" y="0px" width="100%" height="100%" xml:space="preserve"><path fill="#a3a3a3" d="M128.09,0c17.716,0,34.367,3.334,49.795,10.002c15.492,6.7,29.089,15.819,40.726,27.422 c11.634,11.57,20.786,25.134,27.388,40.659c6.603,15.558,9.937,32.194,9.937,49.941c0,17.715-3.334,34.368-9.937,49.86 c-6.602,15.558-15.754,29.155-27.388,40.726c-11.637,11.57-25.233,20.722-40.726,27.388C162.457,252.667,145.806,256,128.09,256 c-17.748,0-34.384-3.333-49.909-10.002c-15.558-6.666-29.122-15.817-40.692-27.388c-11.603-11.57-20.722-25.168-27.39-40.726 c-6.701-15.492-10.034-32.146-10.034-49.86c0-17.747,3.333-34.384,10.034-49.941c6.667-15.525,15.787-29.089,27.39-40.659 c11.57-11.603,25.134-20.722,40.692-27.422C93.706,3.334,110.342,0,128.09,0z M157.571,138.581L157.571,138.581 c2.68-2.124,5.278-4.607,7.958-7.354c2.615-2.811,5.034-5.817,7.322-9.151c2.287-3.301,4.184-6.994,5.557-11.113 c1.372-4.118,2.092-8.956,2.092-14.512c0-7.256-1.505-13.728-4.446-19.415c-2.941-5.622-6.864-10.328-11.766-13.989 c-4.919-3.693-10.443-6.537-16.587-8.498c-6.146-1.961-12.258-2.974-18.337-2.974c-6.732,0-12.779,0.882-18.172,2.647 c-5.393,1.765-9.969,3.661-13.695,5.687c-3.759,2.027-6.569,3.922-8.498,5.688c-1.928,1.765-3.007,2.745-3.203,2.974 c-1.732,1.699-1.863,3.792-0.49,6.243l15.231,18.434c0.425,0.85,1.471,1.503,3.203,1.896c1.274,0,2.517-0.294,3.693-0.948 l1.602-1.274c1.046-0.85,2.517-1.798,4.379-2.811c1.896-1.013,3.955-1.896,6.276-2.647c2.288-0.752,4.772-1.111,7.452-1.111 c4.346,0,8.073,1.209,11.113,3.595c3.039,2.418,4.575,5.491,4.575,9.217c0,3.955-1.307,7.419-3.922,10.329 c-2.614,2.941-5.916,6.177-9.87,9.707c-2.452,1.928-4.936,4.086-7.452,6.472c-2.484,2.418-4.805,5.165-6.864,8.269 c-2.092,3.105-3.792,6.504-5.066,10.165c-1.274,3.693-1.928,7.942-1.928,12.747V167.1c0,1.307,0.491,2.418,1.471,3.333 c0.948,0.98,2.059,1.438,3.333,1.438h26.278c1.308,0,2.386-0.457,3.302-1.438c0.914-0.915,1.372-2.026,1.372-3.333v-8.155 c0-4.185,1.34-7.714,4.086-10.656C150.282,145.347,153.616,142.112,157.571,138.581z M143.484,185.664 c0-1.243-0.458-2.354-1.308-3.334c-0.85-0.98-1.96-1.439-3.366-1.439h-26.278c-1.274,0-2.386,0.459-3.333,1.439 c-0.98,0.979-1.471,2.091-1.471,3.334V210.7c0,1.241,0.491,2.418,1.471,3.398c0.948,1.046,2.059,1.569,3.333,1.569h26.278 c1.308,0,2.386-0.523,3.302-1.569c0.914-0.98,1.372-2.157,1.372-3.398V185.664z" class="shape" style="-webkit-transform: matrix(0.09375, 0, 0, 0.09375, 0, 0);-moz-transform: matrix(0.09375, 0, 0, 0.09375, 0, 0);transform: matrix(0.09375, 0, 0, 0.09375, 0, 0);"></path></svg>