<svg version="1.1" xmlns="http://www.w3.org/2000/svg" xmlns:xlink="http://www.w3.org/1999/xlink" x="0px" y="0px" width="100%" height="100%" xml:space="preserve"><path fill="#474747" d="M242.89,59.072c4.09,1.404,7.143,3.541,9.097,6.41c4.091,5.312,5.067,11.783,2.87,19.354l-42.373,135.42 c-1.771,6.594-5.647,12.027-11.599,16.302c-5.924,4.273-12.273,6.41-19.05,6.41H40.25c-4.091,0-8.06-0.672-11.905-2.137 c-3.847-1.466-7.51-3.419-10.99-5.861c-3.479-2.442-6.563-5.312-9.219-8.669c-2.626-3.358-4.701-6.961-6.197-10.868 c-2.473-6.776-2.595-13.065-0.275-18.988c0.184-1.588,0.367-3.174,0.58-4.7c0.214-1.527,0.397-3.298,0.58-5.191 c0-0.976-0.183-2.015-0.58-3.052c-0.396-1.039-0.519-2.075-0.305-3.053c0.214-1.588,0.977-3.175,2.32-4.701 c1.373-1.587,2.625-3.358,3.815-5.312c2.32-3.724,4.579-8.241,6.838-13.554c2.229-5.372,3.847-9.951,4.824-13.859 c0.427-1.587,0.366-3.113-0.123-4.579c-0.488-1.404-0.549-2.747-0.152-3.969c0.397-1.587,1.222-2.931,2.473-4.09 c1.222-1.16,2.259-2.32,3.053-3.542c1.008-1.771,2.076-3.846,3.236-6.288c1.129-2.381,2.198-4.823,3.205-7.388 c1.008-2.563,1.802-5.007,2.412-7.448c0.58-2.442,0.977-4.458,1.159-6.106c0.214-1.587,0.123-3.235-0.275-4.945 c-0.396-1.647-0.396-3.112,0-4.334c0.581-1.587,1.619-2.869,3.084-3.97c1.404-1.036,2.626-2.259,3.664-3.663 c0.977-1.16,2.045-2.869,3.205-5.128c1.13-2.259,2.289-4.702,3.449-7.449c1.13-2.687,2.105-5.311,2.9-7.815 c0.794-2.562,1.312-4.823,1.495-6.838c0.185-1.159,0-2.38-0.61-3.663c-0.579-1.222-0.672-2.626-0.305-4.091 c0.428-1.404,1.344-2.869,2.809-4.456c1.434-1.526,2.748-3.114,3.969-4.702c1.587-2.502,2.991-5.372,4.243-8.729 c1.251-3.358,2.748-6.411,4.487-9.159c1.74-2.686,4.03-4.884,6.899-6.41c2.809-1.526,6.715-1.648,11.6-0.244l-0.305,0.61 c3.084-0.977,5.77-1.466,8.059-1.466h116.737c7.783,0,13.736,2.809,17.827,8.487c4.091,5.312,4.976,11.723,2.687,19.354 l-42.371,135.541c-1.771,6.289-5.648,11.661-11.602,15.996c-5.922,4.396-12.241,6.594-18.927,6.594H24.07 c-0.977,0-2.015,0.122-3.053,0.305c-1.037,0.185-1.953,0.795-2.747,1.832c-1.221,1.953-1.221,4.762,0,8.364 c1.588,4.273,4.579,8.06,8.975,11.295c4.396,3.237,8.731,4.885,13.005,4.885h141.585c2.87,0,5.739-1.099,8.609-3.236 c2.808-2.137,4.7-4.518,5.616-7.143l46.218-147.69c0.397-1.588,0.672-3.053,0.733-4.396 C243.134,62.003,243.072,60.599,242.89,59.072L242.89,59.072z M74.989,99.185c-1.007,3.907,0.307,5.861,3.878,5.861h92.04 c1.587,0,3.114-0.55,4.549-1.648c1.435-1.1,2.38-2.504,2.776-4.213l3.604-11.234c0.365-1.588,0.244-2.931-0.459-4.09 c-0.701-1.161-1.862-1.711-3.448-1.711H85.919c-1.618,0-3.176,0.55-4.733,1.65c-1.556,1.098-2.533,2.44-2.898,4.15L74.989,99.185z M85.308,64.934c-0.428,1.586-0.245,2.869,0.519,3.969c0.764,1.037,1.923,1.526,3.511,1.526h91.887c1.587,0,3.112-0.489,4.578-1.526 c1.436-1.1,2.504-2.383,3.205-3.969l3.267-11.724c0.428-1.587,0.274-2.93-0.427-4.091c-0.702-1.159-1.894-1.709-3.602-1.709H96.359 c-1.588,0-3.114,0.55-4.549,1.709c-1.435,1.161-2.473,2.504-3.082,4.091L85.308,64.934z" class="shape" style="-webkit-transform: matrix(0.078125, 0, 0, 0.078125, 0, 0);-moz-transform: matrix(0.078125, 0, 0, 0.078125, 0, 0);transform: matrix(0.078125, 0, 0, 0.078125, 0, 0);"></path></svg>