<?xml version="1.0" encoding="utf-8"?>
<!-- Generator: Adobe Illustrator 16.0.0, SVG Export Plug-In . SVG Version: 6.00 Build 0)  -->
<!DOCTYPE svg PUBLIC "-//W3C//DTD SVG 1.1//EN" "http://www.w3.org/Graphics/SVG/1.1/DTD/svg11.dtd">
<svg version="1.1" id="Layer_1" xmlns="http://www.w3.org/2000/svg" xmlns:xlink="http://www.w3.org/1999/xlink" x="0px" y="0px"
	 width="165px" height="170px" viewBox="0 0 165 170" enable-background="new 0 0 165 170" xml:space="preserve">
<g>
	<g>
		<defs>
			<rect id="SVGID_1_" x="6.681" y="3.85" width="150" height="126.804"/>
		</defs>
		<clipPath id="SVGID_2_">
			<use xlink:href="#SVGID_1_"  overflow="visible"/>
		</clipPath>
		<g clip-path="url(#SVGID_2_)">
			<defs>
				<rect id="SVGID_3_" x="6.681" y="3.85" width="150" height="126.804"/>
			</defs>
			<clipPath id="SVGID_4_">
				<use xlink:href="#SVGID_3_"  overflow="visible"/>
			</clipPath>
			<g clip-path="url(#SVGID_4_)">
				<g>
					<defs>
						<rect id="SVGID_5_" x="6.681" y="3.85" width="150" height="126.832"/>
					</defs>
					<clipPath id="SVGID_6_">
						<use xlink:href="#SVGID_5_"  overflow="visible"/>
					</clipPath>
					<path clip-path="url(#SVGID_6_)" fill="#231F20" d="M138.743,75.368l-4.053-3.05l-2.96-2.224l-2.745-4.061l-4.596-12.125
						l3.799-3.902l6.893,2.257l13.44-1.45v-5.428l-2.727-9.445l-5.418-4.578l-0.01-3.593l2.421-4.149l-10.185-11.706L118.565,3.85
						l-19.17,10.376l-19.469,3.16l-11.299,9.446L56.576,37.019L27.678,48.625l-5.679,5.693l-6.803,6.822l-3.911,20.753l7.396,14.579
						l-5.772,11.748l-6.228,17.472l3.93,4.962h7.148h23.178l-0.583-2.044l-0.56-1.961l-9.789-3.54l-2.295-2.99l8.982-14.295
						l0.437-3.348l2.092-5.25l3.276-8.185l6.583,8.471l1.236,5.897l1.161,5.542l5.861,10.303l1.67,2.934l-0.278,2.653l2.689,5.842
						l23.748-0.018l1.755-7.484l1.52-2.564l2.391-4.033l7.367-12.426l3.8-6.41l-0.699-7.385l-0.223-2.36l2.745-7.593l5.076-2.298
						l4.518,14.174l2.025,1.744l5.266,4.535l16.075,13.849l1.344,2.076l2.196,3.393l-2.295,0.588l-1.206,1.931l-2.007,3.211
						l2.794,7.052h17.19l1.881-17.371L138.743,75.368z M77.918,91.632l-0.497,4.74l-0.133,17.177l-0.036,2.435l-2.039,1.133
						l-3.181-18.487L63.039,80.99l15.927-0.023l1.369,5.084L77.918,91.632z"/>
				</g>
			</g>
		</g>
		<polygon clip-path="url(#SVGID_2_)" fill="#9E1E21" points="122.266,74.188 156.681,113.292 138.743,75.368 134.69,72.318 		"/>
		<polygon clip-path="url(#SVGID_2_)" fill="#BE1F24" points="65.465,75.898 65.465,75.898 78.966,80.967 56.576,37.019 		"/>
		<polygon clip-path="url(#SVGID_2_)" fill="#7E7C4B" points="113.8,64.569 78.966,80.967 104.548,76.972 		"/>
		<polygon clip-path="url(#SVGID_2_)" fill="#9A9D51" points="113.8,64.569 104.548,76.972 122.265,74.188 		"/>
		<polygon clip-path="url(#SVGID_2_)" fill="#6B200D" points="78.966,80.967 65.465,75.898 63.039,80.99 		"/>
		<polygon clip-path="url(#SVGID_2_)" fill="#B62126" points="78.966,80.967 80.335,86.051 77.918,91.632 77.421,96.373 
			77.288,113.549 96.172,88.211 		"/>
		<polygon clip-path="url(#SVGID_2_)" fill="#D67D2A" points="104.548,76.972 78.966,80.967 96.172,88.211 		"/>
		<polygon clip-path="url(#SVGID_2_)" fill="#65692A" points="134.69,72.318 131.73,70.094 113.8,64.569 122.266,74.188 		"/>
		<polygon clip-path="url(#SVGID_2_)" fill="#126479" points="99.396,14.226 99.396,14.226 79.927,17.385 92.581,37.729 		"/>
		<polygon clip-path="url(#SVGID_2_)" fill="#838D36" points="92.581,37.729 79.927,17.385 77.492,30.91 		"/>
		<polygon clip-path="url(#SVGID_2_)" fill="#455776" points="130.933,25.118 99.395,14.226 92.581,37.729 		"/>
		<g clip-path="url(#SVGID_2_)">
			<defs>
				<polygon id="SVGID_7_" points="142.788,23.62 132.604,11.914 130.933,25.118 				"/>
			</defs>
			<clipPath id="SVGID_8_">
				<use xlink:href="#SVGID_7_"  overflow="visible"/>
			</clipPath>
			
				<linearGradient id="SVGID_9_" gradientUnits="userSpaceOnUse" x1="-345.3857" y1="669.75" x2="-345.1469" y2="669.75" gradientTransform="matrix(41.7767 49.7875 49.7875 -41.7767 -18784.2207 45188.4062)">
				<stop  offset="0" style="stop-color:#48305E"/>
				<stop  offset="0.2538" style="stop-color:#452E5B"/>
				<stop  offset="0.4701" style="stop-color:#3C2750"/>
				<stop  offset="0.6727" style="stop-color:#2C1D3F"/>
				<stop  offset="0.8656" style="stop-color:#160E26"/>
				<stop  offset="1" style="stop-color:#020010"/>
			</linearGradient>
			<polygon clip-path="url(#SVGID_8_)" fill="url(#SVGID_9_)" points="137.89,6.076 149.289,19.662 135.831,30.956 124.431,17.37 
							"/>
		</g>
		<g clip-path="url(#SVGID_2_)">
			<defs>
				<polygon id="SVGID_10_" points="140.367,27.769 142.788,23.62 130.933,25.118 148.522,50.814 148.522,45.386 145.795,35.94 
					140.377,31.362 				"/>
			</defs>
			<clipPath id="SVGID_11_">
				<use xlink:href="#SVGID_10_"  overflow="visible"/>
			</clipPath>
			
				<linearGradient id="SVGID_12_" gradientUnits="userSpaceOnUse" x1="-340.5771" y1="669.5723" x2="-340.3387" y2="669.5723" gradientTransform="matrix(18.759 -106.3878 -106.3878 -18.759 77760.9531 -23623.8711)">
				<stop  offset="0" style="stop-color:#4A317E"/>
				<stop  offset="0.2237" style="stop-color:#482F7B"/>
				<stop  offset="0.4145" style="stop-color:#402A70"/>
				<stop  offset="0.5932" style="stop-color:#34225F"/>
				<stop  offset="0.7646" style="stop-color:#221646"/>
				<stop  offset="0.9293" style="stop-color:#0B0826"/>
				<stop  offset="1" style="stop-color:#000016"/>
			</linearGradient>
			<polygon clip-path="url(#SVGID_11_)" fill="url(#SVGID_12_)" points="126.282,49.994 131.462,20.611 153.173,24.439 
				147.991,53.822 			"/>
		</g>
		<polygon clip-path="url(#SVGID_2_)" fill="#0D2745" points="130.933,25.118 132.604,11.914 99.395,14.226 		"/>
		<polygon clip-path="url(#SVGID_2_)" fill="#64C19B" points="79.927,17.385 68.628,26.832 77.492,30.91 		"/>
		<polygon clip-path="url(#SVGID_2_)" fill="#2B1246" points="118.565,3.85 99.395,14.226 132.604,11.914 		"/>
		<polygon clip-path="url(#SVGID_2_)" fill="#0C2749" points="113.8,64.569 131.73,70.094 128.985,66.033 		"/>
		<polygon clip-path="url(#SVGID_2_)" fill="#56287B" points="148.521,50.814 148.521,50.814 130.933,25.118 135.081,52.264 		"/>
		<g clip-path="url(#SVGID_2_)">
			<defs>
				<polygon id="SVGID_13_" points="113.613,44.96 130.933,25.118 92.581,37.729 				"/>
			</defs>
			<clipPath id="SVGID_14_">
				<use xlink:href="#SVGID_13_"  overflow="visible"/>
			</clipPath>
			
				<linearGradient id="SVGID_15_" gradientUnits="userSpaceOnUse" x1="-342.0889" y1="669.8389" x2="-341.8505" y2="669.8389" gradientTransform="matrix(158.8566 -57.8191 -57.8191 -158.8566 93166.5 86670.4297)">
				<stop  offset="0" style="stop-color:#355699"/>
				<stop  offset="0.2791" style="stop-color:#345496"/>
				<stop  offset="0.4539" style="stop-color:#304E8E"/>
				<stop  offset="0.6" style="stop-color:#2A437F"/>
				<stop  offset="0.7304" style="stop-color:#20346B"/>
				<stop  offset="0.8503" style="stop-color:#142150"/>
				<stop  offset="0.9609" style="stop-color:#060A2F"/>
				<stop  offset="1" style="stop-color:#000022"/>
			</linearGradient>
			<polygon clip-path="url(#SVGID_14_)" fill="url(#SVGID_15_)" points="86.203,27.439 126.445,12.792 137.31,42.639 97.066,57.286 
							"/>
		</g>
		<g clip-path="url(#SVGID_2_)">
			<defs>
				<polygon id="SVGID_16_" points="113.8,64.569 130.933,25.118 113.613,44.96 				"/>
			</defs>
			<clipPath id="SVGID_17_">
				<use xlink:href="#SVGID_16_"  overflow="visible"/>
			</clipPath>
			
				<linearGradient id="SVGID_18_" gradientUnits="userSpaceOnUse" x1="-341.0195" y1="668.6152" x2="-340.7808" y2="668.6152" gradientTransform="matrix(0 -165.279 -165.279 0 110630.5156 -56298.8242)">
				<stop  offset="0" style="stop-color:#44ACE1"/>
				<stop  offset="0.1831" style="stop-color:#43A9DE"/>
				<stop  offset="0.3386" style="stop-color:#3EA1D3"/>
				<stop  offset="0.4842" style="stop-color:#3793C2"/>
				<stop  offset="0.6237" style="stop-color:#2D7FA9"/>
				<stop  offset="0.7589" style="stop-color:#206589"/>
				<stop  offset="0.8889" style="stop-color:#104762"/>
				<stop  offset="1" style="stop-color:#00273B"/>
			</linearGradient>
			<rect x="113.613" y="25.118" clip-path="url(#SVGID_17_)" fill="url(#SVGID_18_)" width="17.319" height="39.451"/>
		</g>
		<g clip-path="url(#SVGID_2_)">
			<defs>
				<polygon id="SVGID_19_" points="113.8,64.569 128.985,66.033 124.39,53.909 128.188,50.007 135.081,52.264 130.933,25.118 				
					"/>
			</defs>
			<clipPath id="SVGID_20_">
				<use xlink:href="#SVGID_19_"  overflow="visible"/>
			</clipPath>
			
				<linearGradient id="SVGID_21_" gradientUnits="userSpaceOnUse" x1="-342.9097" y1="671.4893" x2="-342.6709" y2="671.4893" gradientTransform="matrix(89.1582 0 0 -89.1582 30687.0117 59914.3164)">
				<stop  offset="0" style="stop-color:#2B75A1"/>
				<stop  offset="0.249" style="stop-color:#2A739E"/>
				<stop  offset="0.423" style="stop-color:#276B95"/>
				<stop  offset="0.5743" style="stop-color:#215E86"/>
				<stop  offset="0.7125" style="stop-color:#1A4B70"/>
				<stop  offset="0.8418" style="stop-color:#103353"/>
				<stop  offset="0.963" style="stop-color:#041631"/>
				<stop  offset="1" style="stop-color:#000C25"/>
			</linearGradient>
			<rect x="113.8" y="25.118" clip-path="url(#SVGID_20_)" fill="url(#SVGID_21_)" width="21.281" height="40.915"/>
		</g>
		<polygon clip-path="url(#SVGID_2_)" fill="#CA7317" points="136.783,112.413 138.127,114.489 156.681,113.293 139.6,106.285 		"/>
		<polygon clip-path="url(#SVGID_2_)" fill="#E5A823" points="138.127,114.489 140.323,117.882 138.028,118.47 136.821,120.401 
			156.681,113.293 		"/>
		<polygon clip-path="url(#SVGID_2_)" fill="#D56B2A" points="56.576,37.019 56.576,37.019 78.154,55.779 77.493,30.91 		"/>
		<g clip-path="url(#SVGID_2_)">
			<defs>
				<polygon id="SVGID_22_" points="86.403,62.886 78.966,80.967 113.8,64.569 				"/>
			</defs>
			<clipPath id="SVGID_23_">
				<use xlink:href="#SVGID_22_"  overflow="visible"/>
			</clipPath>
			
				<linearGradient id="SVGID_24_" gradientUnits="userSpaceOnUse" x1="-342.1846" y1="670.9023" x2="-341.9463" y2="670.9023" gradientTransform="matrix(145.9366 0 0 -145.9366 50016.2539 97981.1172)">
				<stop  offset="0" style="stop-color:#917F2E"/>
				<stop  offset="0.3897" style="stop-color:#796A21"/>
				<stop  offset="1" style="stop-color:#4B4309"/>
			</linearGradient>
			<rect x="78.966" y="62.886" clip-path="url(#SVGID_23_)" fill="url(#SVGID_24_)" width="34.834" height="18.081"/>
		</g>
		<g clip-path="url(#SVGID_2_)">
			<defs>
				<rect id="SVGID_25_" x="6.681" y="3.85" width="150" height="126.804"/>
			</defs>
			<clipPath id="SVGID_26_">
				<use xlink:href="#SVGID_25_"  overflow="visible"/>
			</clipPath>
			<path clip-path="url(#SVGID_26_)" fill="#56287B" d="M87.468,76.936"/>
		</g>
		<polygon clip-path="url(#SVGID_2_)" fill="#DAA63C" points="77.493,30.91 86.403,62.886 92.581,37.729 		"/>
		<polygon clip-path="url(#SVGID_2_)" fill="#F6945A" points="86.403,62.886 78.154,55.779 78.966,80.967 		"/>
		<polygon clip-path="url(#SVGID_2_)" fill="#DB4128" points="78.154,55.779 56.576,37.019 78.966,80.967 		"/>
		<polygon clip-path="url(#SVGID_2_)" fill="#A27529" points="86.403,62.886 113.8,64.568 92.581,37.729 		"/>
		<polygon clip-path="url(#SVGID_2_)" fill="#F9A51A" points="77.493,30.91 78.154,55.779 86.403,62.886 		"/>
		<polygon clip-path="url(#SVGID_2_)" fill="#466AA5" points="113.8,64.569 113.613,44.96 92.581,37.729 		"/>
		<polygon clip-path="url(#SVGID_2_)" fill="#E18E26" points="77.493,30.91 68.628,26.832 56.576,37.019 		"/>
		<polygon clip-path="url(#SVGID_2_)" fill="#D2412A" points="50.316,103.408 51.479,108.95 57.339,119.253 75.213,117.118 		"/>
		<polygon clip-path="url(#SVGID_2_)" fill="#E18E26" points="57.339,119.253 59.009,122.187 58.73,124.839 61.406,130.654 
			61.448,130.654 75.213,117.118 		"/>
		<polygon clip-path="url(#SVGID_2_)" fill="#6B200D" points="61.448,130.654 85.16,130.654 75.213,117.118 		"/>
		<polygon clip-path="url(#SVGID_2_)" fill="#A60E13" points="65.465,75.898 37.367,65.355 42.497,89.04 63.039,80.99 		"/>
		<polygon clip-path="url(#SVGID_2_)" fill="#6B200D" points="42.497,89.04 49.08,97.511 50.316,103.408 75.213,117.118 		"/>
		<polygon clip-path="url(#SVGID_2_)" fill="#C73A23" points="85.16,130.654 85.171,130.654 86.923,123.18 75.213,117.118 		"/>
		<polygon clip-path="url(#SVGID_2_)" fill="#C3161C" points="75.213,117.118 72.032,98.631 63.039,80.99 42.497,89.04 		"/>
		<polygon clip-path="url(#SVGID_2_)" fill="#C5401B" points="136.783,112.413 139.6,106.285 120.708,98.564 		"/>
		<polygon clip-path="url(#SVGID_2_)" fill="#7A1315" points="11.285,81.893 11.285,81.893 39.221,97.225 42.497,89.04 		"/>
		<polygon clip-path="url(#SVGID_2_)" fill="#E6B122" points="86.923,123.18 88.442,120.616 75.213,117.118 		"/>
		<polygon clip-path="url(#SVGID_2_)" fill="#6B200D" points="136.821,120.401 134.815,123.612 137.605,130.654 154.801,130.654 
			156.681,113.293 		"/>
		<polygon clip-path="url(#SVGID_2_)" fill="#C4351C" points="139.6,106.285 156.681,113.293 143.336,98.125 		"/>
		<polygon clip-path="url(#SVGID_2_)" fill="#871518" points="139.6,106.285 143.336,98.125 131.359,84.52 115.442,94.029 
			120.708,98.564 		"/>
		<polygon clip-path="url(#SVGID_2_)" fill="#CD181F" points="131.359,84.52 122.266,74.188 104.548,76.972 96.172,88.211 
			101.301,90.362 101.078,88.002 103.823,80.409 108.899,78.111 113.417,92.285 115.442,94.029 		"/>
		<polygon clip-path="url(#SVGID_2_)" fill="#CB7A17" points="88.442,120.616 90.833,116.583 75.213,117.118 		"/>
		<polygon clip-path="url(#SVGID_2_)" fill="#A61C20" points="77.252,115.984 75.213,117.118 90.833,116.583 98.2,104.157 		"/>
		<polygon clip-path="url(#SVGID_2_)" fill="#CD181F" points="96.172,88.211 77.288,113.549 77.252,115.984 98.2,104.156 
			102,97.748 101.301,90.362 		"/>
		<g clip-path="url(#SVGID_2_)">
			<defs>
				<polygon id="SVGID_27_" points="37.367,65.355 15.196,61.14 11.284,81.893 				"/>
			</defs>
			<clipPath id="SVGID_28_">
				<use xlink:href="#SVGID_27_"  overflow="visible"/>
			</clipPath>
			
				<linearGradient id="SVGID_29_" gradientUnits="userSpaceOnUse" x1="-339.9326" y1="671.6973" x2="-339.6938" y2="671.6973" gradientTransform="matrix(109.2701 0 0 -109.2701 37155.7695 73468.0625)">
				<stop  offset="0" style="stop-color:#EC1C24"/>
				<stop  offset="0.3606" style="stop-color:#D3171D"/>
				<stop  offset="1" style="stop-color:#9D0B0F"/>
			</linearGradient>
			<rect x="11.284" y="61.14" clip-path="url(#SVGID_28_)" fill="url(#SVGID_29_)" width="26.083" height="20.753"/>
		</g>
		<g clip-path="url(#SVGID_2_)">
			<defs>
				<rect id="SVGID_30_" x="6.681" y="3.85" width="150" height="126.804"/>
			</defs>
			<clipPath id="SVGID_31_">
				<use xlink:href="#SVGID_30_"  overflow="visible"/>
			</clipPath>
			<path clip-path="url(#SVGID_31_)" fill="#56287B" d="M11.285,81.893"/>
		</g>
		<polygon clip-path="url(#SVGID_2_)" fill="#DF7F50" points="27.678,48.625 21.999,54.318 37.367,65.355 		"/>
		<polygon clip-path="url(#SVGID_2_)" fill="#DB4133" points="21.999,54.318 15.196,61.14 37.367,65.355 		"/>
		<polygon clip-path="url(#SVGID_2_)" fill="#6B200D" points="17.759,130.654 40.937,130.654 40.354,128.609 6.681,125.691 		"/>
		<g clip-path="url(#SVGID_2_)">
			<defs>
				<rect id="SVGID_32_" x="6.681" y="3.85" width="150" height="126.804"/>
			</defs>
			<clipPath id="SVGID_33_">
				<use xlink:href="#SVGID_32_"  overflow="visible"/>
			</clipPath>
			<path clip-path="url(#SVGID_33_)" fill="#56287B" d="M56.576,37.019"/>
		</g>
		<polygon clip-path="url(#SVGID_2_)" fill="#F9B28A" points="56.576,37.019 56.576,37.019 27.678,48.625 37.367,65.355 		"/>
		<polygon clip-path="url(#SVGID_2_)" fill="#D71921" points="37.367,65.355 11.285,81.893 42.497,89.04 		"/>
		<polygon clip-path="url(#SVGID_2_)" fill="#DC4D28" points="65.465,75.898 65.465,75.898 56.576,37.019 37.367,65.355 		"/>
		<polygon clip-path="url(#SVGID_2_)" fill="#DC5928" points="6.681,125.691 40.354,128.609 39.794,126.648 30.004,123.108 		"/>
		<polygon clip-path="url(#SVGID_2_)" fill="#9E1E21" points="36.692,105.823 37.13,102.476 39.221,97.225 11.284,81.893 		"/>
		<polygon clip-path="url(#SVGID_2_)" fill="#6D5545" points="10.61,130.654 17.759,130.654 6.681,125.691 		"/>
		<g clip-path="url(#SVGID_2_)">
			<defs>
				<polygon id="SVGID_34_" points="18.682,96.472 12.908,108.219 6.681,125.691 30.004,123.108 27.71,120.119 36.692,105.823 
					11.284,81.893 				"/>
			</defs>
			<clipPath id="SVGID_35_">
				<use xlink:href="#SVGID_34_"  overflow="visible"/>
			</clipPath>
			
				<linearGradient id="SVGID_36_" gradientUnits="userSpaceOnUse" x1="-340.2183" y1="672.0977" x2="-339.9795" y2="672.0977" gradientTransform="matrix(125.733 0 0 -125.733 42783.2969 84608.7656)">
				<stop  offset="0" style="stop-color:#C3161C"/>
				<stop  offset="0.1601" style="stop-color:#BD151B"/>
				<stop  offset="0.3673" style="stop-color:#AD1216"/>
				<stop  offset="0.6004" style="stop-color:#920C10"/>
				<stop  offset="0.8507" style="stop-color:#6E0506"/>
				<stop  offset="1" style="stop-color:#540000"/>
			</linearGradient>
			<rect x="6.681" y="81.893" clip-path="url(#SVGID_35_)" fill="url(#SVGID_36_)" width="30.012" height="43.798"/>
		</g>
		<g clip-path="url(#SVGID_2_)">
			<defs>
				<rect id="SVGID_37_" x="6.681" y="3.85" width="150" height="126.804"/>
			</defs>
			<clipPath id="SVGID_38_">
				<use xlink:href="#SVGID_37_"  overflow="visible"/>
			</clipPath>
			<path clip-path="url(#SVGID_38_)" fill="#56287B" d="M11.285,81.893"/>
		</g>
	</g>
	<g>
		<path fill="#333333" d="M13.798,152.799h7.086v8.85c-1.924,0.659-4.039,0.988-6.346,0.988c-2.53,0-4.486-0.734-5.867-2.201
			c-1.382-1.467-2.072-3.56-2.072-6.278c0-2.65,0.756-4.713,2.269-6.188s3.631-2.212,6.356-2.212c1.033,0,2.009,0.097,2.926,0.292
			s1.716,0.442,2.397,0.741l-1.403,3.481c-1.184-0.584-2.482-0.876-3.897-0.876c-1.295,0-2.297,0.421-3.004,1.263
			c-0.708,0.843-1.062,2.046-1.062,3.611c0,1.535,0.32,2.705,0.96,3.509c0.641,0.805,1.563,1.208,2.769,1.208
			c0.659,0,1.266-0.063,1.819-0.191v-2.572h-2.931V152.799z"/>
		<path fill="#333333" d="M39.594,154.18c0,2.763-0.678,4.863-2.032,6.3c-1.355,1.438-3.34,2.156-5.953,2.156
			c-2.575,0-4.55-0.723-5.924-2.167s-2.061-3.549-2.061-6.312c0-2.733,0.684-4.82,2.05-6.261c1.366-1.441,3.353-2.162,5.958-2.162
			c2.612,0,4.593,0.715,5.94,2.145S39.594,151.41,39.594,154.18z M28.296,154.18c0,3.174,1.104,4.762,3.312,4.762
			c1.123,0,1.956-0.386,2.499-1.157s0.814-1.973,0.814-3.605c0-1.64-0.275-2.851-0.825-3.633c-0.551-0.782-1.372-1.173-2.465-1.173
			C29.407,149.374,28.296,150.976,28.296,154.18z"/>
		<path fill="#333333" d="M46.995,156.438v5.975h-4.437v-16.419h5.38c4.462,0,6.693,1.617,6.693,4.852
			c0,1.902-0.929,3.373-2.785,4.414l4.783,7.154h-5.031l-3.48-5.975H46.995z M46.995,153.102h0.83c1.551,0,2.325-0.685,2.325-2.055
			c0-1.13-0.76-1.696-2.28-1.696h-0.875V153.102z"/>
		<path fill="#333333" d="M58.124,162.412v-16.419h4.458v16.419H58.124z"/>
		<path fill="#333333" d="M66.131,162.412v-16.419h4.437v12.836h6.322v3.583H66.131z"/>
		<path fill="#333333" d="M79.518,162.412v-16.419h4.437v12.836h6.322v3.583H79.518z"/>
		<path fill="#333333" d="M102.978,162.412l-0.809-3.077h-5.334l-0.831,3.077H91.13l5.357-16.486h5.918l5.424,16.486H102.978z
			 M101.249,155.696l-0.708-2.695c-0.165-0.599-0.365-1.374-0.601-2.325c-0.236-0.951-0.392-1.632-0.467-2.044
			c-0.066,0.382-0.2,1.011-0.398,1.887s-0.638,2.602-1.319,5.177H101.249z"/>
		<path fill="#333333" d="M125.651,162.412l-0.809-3.077h-5.334l-0.831,3.077h-4.874l5.357-16.486h5.918l5.424,16.486H125.651z
			 M123.923,155.696l-0.708-2.695c-0.165-0.599-0.365-1.374-0.601-2.325c-0.236-0.951-0.392-1.632-0.467-2.044
			c-0.066,0.382-0.2,1.011-0.398,1.887s-0.638,2.602-1.319,5.177H123.923z"/>
		<path fill="#333333" d="M144.192,151.215c0,1.834-0.54,3.251-1.622,4.25c-1.082,1-2.619,1.5-4.61,1.5h-1.246v5.447h-4.437v-16.419
			h5.683c2.074,0,3.631,0.453,4.672,1.359S144.192,149.546,144.192,151.215z M136.714,153.349h0.809
			c0.666,0,1.195-0.187,1.589-0.562c0.393-0.375,0.589-0.891,0.589-1.55c0-1.108-0.613-1.662-1.842-1.662h-1.145V153.349z"/>
		<path fill="#333333" d="M158.725,151.215c0,1.834-0.54,3.251-1.622,4.25c-1.082,1-2.619,1.5-4.61,1.5h-1.246v5.447h-4.437v-16.419
			h5.683c2.074,0,3.631,0.453,4.672,1.359S158.725,149.546,158.725,151.215z M151.246,153.349h0.809
			c0.666,0,1.195-0.187,1.589-0.562c0.393-0.375,0.589-0.891,0.589-1.55c0-1.108-0.613-1.662-1.842-1.662h-1.145V153.349z"/>
	</g>
</g>
<text transform="matrix(1 0 0 1 254.4307 255.4121)" fill="#333333" font-family="'OpenSans-Extrabold'" font-size="23">GORILLA APP</text>
</svg>
