<svg xmlns="http://www.w3.org/2000/svg" xmlns:xlink="http://www.w3.org/1999/xlink" version="1.1" id="users" x="0px" y="0px" enable-background="new 0 0 800 800" xml:space="preserve" width="100%" height="100%"><g class="shape" style="-webkit-transform: matrix(0.025000, 0, 0, 0.030000, 0, 0);-moz-transform: matrix(0.025000, 0, 0, 0.030000, 0, 0);transform: matrix(0.025000, 0, 0, 0.030000, 0, 0);"><path fill="#474747" xmlns:default="http://www.w3.org/2000/svg" d="M234.2,403.9c71,0,113-50,115.7-118.3c2.6-68.3-50-120.9-118.3-120.9c-65.7,0-120.9,50-118.3,118.3  C118.6,351.3,160.7,403.9,234.2,403.9z"></path><path fill="#474747" xmlns:default="http://www.w3.org/2000/svg" d="M423.5,511.7c-50-34.2-97.9-47.6-165.6-52.6c-9.1-0.7-17.8-1-26.3-1.2c-8.5,0.1-17.2,0.5-26.3,1.2  c-67.7,5-115.7,18.4-165.6,52.6c-21,15.8-38.1,32.2-39.4,57.8c-1.3,25.6,2.4,39.8,6.6,50c4.1,10.2,7.9,15.7,18.4,15.7h206.4H438  c10.5,0,14.2-5.6,18.4-15.8c4.2-10.2,7.9-24.3,6.6-50C461.6,543.9,444.6,527.5,423.5,511.7z"></path><path fill="#474747" xmlns:default="http://www.w3.org/2000/svg" d="M686.7,285.6c2.6-68.3-50-120.9-118.3-120.9c-65.7,0-120.9,50-118.3,118.3c5.2,68.3,47.3,120.9,120.9,120.9  C642,403.9,684.1,354,686.7,285.6z"></path><path fill="#474747" xmlns:default="http://www.w3.org/2000/svg" d="M799.7,569.6c-1.3-25.6-18.4-42.1-39.4-57.8c-50-34.2-97.9-47.6-165.6-52.6c-9.1-0.7-17.8-1-26.3-1.2  c-8.5,0.1-17.2,0.5-26.3,1.2c-20.1,1.5-38,4.1-55.2,7.3c40.8,7.8,75.3,21.2,110.4,45.2c21,15.8,38.1,32.2,39.4,57.8  c1.3,25.6-2.4,55.5-6.6,65.7h144.6c10.5,0,14.2-5.6,18.4-15.8C797.3,609.3,801,595.2,799.7,569.6z"></path></g></svg>