<svg version="1.1" xmlns="http://www.w3.org/2000/svg" xmlns:xlink="http://www.w3.org/1999/xlink" x="0px" y="0px" width="100%" height="100%" xml:space="preserve"><g class="shape" style="-webkit-transform: matrix(0.078125, 0, 0, 0.078125, 0, 0);-moz-transform: matrix(0.078125, 0, 0, 0.078125, 0, 0);transform: matrix(0.078125, 0, 0, 0.078125, 0, 0);"><path fill="#474747" d="M128,128L128,128L128,128L128,128L128,128L128,128L128,128L128,128L128,128L128,128L128,128L128,128L128,128 L128,128L128,128L128,128L128,128L128,128L128,128L128,128L128,128L128,128L128,128L128,128L128,128L128,128L128,128L128,128 L128,128L128,128L128,128L128,128L128,128L128,128L128,128L128,128L128,128L128,128L128,128L128,128L128,128L128,128L128,128 L128,128L128,128L128,128L128,128L128,128L128,128L128,128L128,128L128,128L128,128L128,128L128,128L128,128L128,128L128,128 L128,128L128,128L128,128L128,128L128,128L128,128z M128,128L128,128L128,128L128,128L128,128L128,128L128,128L128,128L128,128z M128,128L128,128L128,128L128,128L128,128L128,128L128,128L128,128L128,128z"></path><path fill="#474747" d="M245.121,19.195c3.06,0,5.666,1.048,7.706,3.145c2.097,2.068,3.173,4.533,3.173,7.423v153.04 c0,2.89-1.076,5.326-3.173,7.366c-2.04,2.04-4.646,3.06-7.706,3.06h-10.37v0.963c0,5.837-1.19,11.391-3.514,16.604 s-5.326,9.746-9.066,13.543c-3.739,3.797-8.272,6.8-13.486,9.066c-5.213,2.267-10.823,3.4-16.716,3.4 c-5.837,0-11.391-1.134-16.604-3.4c-5.27-2.267-9.746-5.27-13.543-9.066s-6.842-8.33-9.109-13.543 c-2.266-5.213-3.399-10.767-3.399-16.604v-0.963h-42.641v0.963c0,5.837-1.133,11.391-3.4,16.604s-5.298,9.746-9.095,13.543 s-8.33,6.8-13.543,9.066c-5.241,2.267-10.766,3.4-16.603,3.4c-5.837,0-11.361-1.134-16.603-3.4s-9.747-5.27-13.543-9.066 s-6.829-8.33-9.095-13.543s-3.399-10.767-3.399-16.604v-0.963H10.568c-2.89,0-5.355-1.076-7.451-3.116 C1.049,188.016,0,185.579,0,182.803v-56.113c0-2.295,0.284-4.675,0.822-7.14c0.567-2.465,1.388-4.902,2.437-7.367 c1.076-2.465,2.323-4.817,3.768-7.083c1.417-2.267,2.89-4.136,4.363-5.638l30.968-30.826c1.474-1.474,3.372-2.946,5.695-4.363 c2.323-1.445,4.703-2.663,7.168-3.684c2.437-1.02,4.901-1.813,7.338-2.437c2.465-0.595,4.845-0.906,7.168-0.906h11.106V29.763 c0-2.89,1.048-5.355,3.117-7.423c2.097-2.097,4.533-3.145,7.31-3.145H245.121L245.121,19.195z M80.55,84.049H69.727 c-0.935,0-2.38,0.396-4.363,1.133c-2.012,0.737-3.428,1.53-4.25,2.352l-30.967,30.684c-0.737,0.737-1.502,2.125-2.238,4.108 c-0.737,1.983-1.105,3.428-1.105,4.363v8.613H80.55V84.049z M64.032,210.002c4.335,0,8.075-1.53,11.191-4.646 c3.088-3.061,4.646-6.801,4.646-11.164c0-4.362-1.559-8.103-4.646-11.275c-3.117-3.117-6.856-4.703-11.191-4.703 c-4.363,0-8.104,1.586-11.248,4.646c-3.145,3.116-4.731,6.913-4.731,11.332c0,4.363,1.586,8.104,4.731,11.164 C55.929,208.472,59.669,210.002,64.032,210.002z M191.969,210.002c4.307,0,8.103-1.53,11.22-4.646 c3.173-3.061,4.76-6.801,4.76-11.164c0-4.362-1.587-8.103-4.703-11.275c-3.061-3.117-6.856-4.703-11.276-4.703 c-4.363,0-8.104,1.586-11.221,4.646c-3.06,3.116-4.646,6.913-4.646,11.332c0,4.363,1.587,8.104,4.646,11.164 C183.865,208.472,187.605,210.002,191.969,210.002z"></path></g></svg>