<svg xmlns="http://www.w3.org/2000/svg" xmlns:xlink="http://www.w3.org/1999/xlink" version="1.1" id="user" x="0px" y="0px" enable-background="new 0 0 800 800" xml:space="preserve" width="100%" height="100%"><g class="shape" style="-webkit-transform: matrix(0.040000, 0, 0, 0.040000, 0, 0);-moz-transform: matrix(0.040000, 0, 0, 0.040000, 0, 0);transform: matrix(0.040000, 0, 0, 0.040000, 0, 0);"><path fill="#a3a3a3" xmlns:default="http://www.w3.org/2000/svg" id="user_x5F_icon2" d="M0,0v800h800V0H0z M406.2,115.6c83,0,146.8,63.6,143.6,146.2c-3.2,82.6-54.2,143-140.4,143  c-89.3,0-140.4-63.6-146.8-146.2C259.4,175.9,326.4,115.6,406.2,115.6z M679,665.4c-5.1,12.3-9.6,19.1-22.4,19.1H406.2H155.7  c-12.8,0-17.3-6.8-22.4-19.1c-5.1-12.3-9.6-29.4-8-60.4s22.3-50.8,47.9-69.9c60.6-41.3,118.8-57.6,201-63.6  c11-0.8,21.6-1.2,31.9-1.4c10.3,0.2,20.9,0.6,31.9,1.4c82.2,6,140.4,22.2,201,63.6c25.5,19.1,46.3,38.9,47.9,69.9  C688.6,636,684,653.1,679,665.4z"></path></g></svg>