<?xml version="1.0" standalone="no"?>
<!DOCTYPE svg PUBLIC "-//W3C//DTD SVG 1.1//EN" "http://www.w3.org/Graphics/SVG/1.1/DTD/svg11.dtd">
<svg xmlns="http://www.w3.org/2000/svg">
<metadata>Generated by Fontastic.me</metadata>
<defs>
<font id="gorilla-app" horiz-adv-x="512">
<font-face font-family="gorilla-app" units-per-em="512" ascent="480" descent="-32"/>
<missing-glyph horiz-adv-x="512" />

<glyph glyph-name="alert-msgs-info" unicode="&#98;" d="M256 275c-4 0-8-3-8-8l0-99c0-4 4-7 8-7 4 0 8 3 8 7l0 99c0 5-4 8-8 8z m0 69c-4 0-8-4-8-8l0-19c0-4 4-8 8-8 4 0 8 4 8 8l0 19c0 4-4 8-8 8z m0 72c-87 0-160-73-160-160 0-87 73-160 160-160 87 0 160 73 160 160 0 87-73 160-160 160z m0-305c-78 0-145 67-145 145 0 78 67 145 145 145 78 0 145-67 145-145 0-78-67-145-145-145z"/>
<glyph glyph-name="alert-msgs-success" unicode="&#99;" d="M327 309l-96-96-42 43c-3 3-8 3-11 0-3-3-3-8 0-11l48-48c1-1 3-2 5-2 2 0 4 1 6 2l101 101c3 3 3 8 0 11-3 3-8 3-11 0z m-71 107c-87 0-160-73-160-160 0-87 73-160 160-160 87 0 160 73 160 160 0 87-73 160-160 160z m0-305c-78 0-145 67-145 145 0 78 67 145 145 145 78 0 145-67 145-145 0-78-67-145-145-145z"/>
<glyph glyph-name="alert-msgs-warning" unicode="&#100;" d="M256 316c-4 0-7-4-7-8l0-91c0-4 3-7 7-7 4 0 7 3 7 7l0 91c0 4-3 8-7 8z m0-124c-4 0-7-3-7-7l0-15c0-4 3-7 7-7 4 0 7 3 7 7l0 15c0 4-3 7-7 7z m164-46l-144 243c-4 7-12 11-20 11-8 0-16-4-20-11l-144-244c-4-7-4-15 0-22 5-7 12-11 21-11l286 0c9 0 16 4 21 11 4 7 4 15 0 23z m-13-16c-1-1-3-3-8-3l-286 0c-5 0-7 2-8 3 0 2-2 5 0 8l144 243c2 4 6 5 7 5 1 0 5-1 7-5l144-243c2-3 0-6 0-8z"/>
<glyph glyph-name="earth" unicode="&#119;" d="M251 512c-138 0-251-115-251-256 0-141 113-256 251-256 139 0 251 115 251 256 0 141-112 256-251 256z m220-231c8-13 5-15-1-19-4-3-9-8-9-15 0-2-5-5-8-7-10-5-26-15-21-39 5-29-2-48-36-95-16-22-35-30-45-18-8 10-11 30-8 54 10 73-22 91-23 92-1 0-2 0-3 0-1 0-2 0-3 0 0 0-15-8-32-8-24 0-39 14-46 42-10 39 10 54 25 66 9 6 16 12 17 20 1 6-2 11-7 16-5 6-8 12-7 18 1 10 10 17 13 20 10 1 36 4 43 16 2 4 2 9 0 13-2 6-2 8-2 8 1 1 6 3 10 4l5 1c16 5 23 17 25 22 65-33 111-96 125-168-7 0-11-3-14-7-2-4-1-9 2-16z m-335 130c1-1 2-2 2-2 0 0 1-3-6-11-5-5-8-8-10-9 0 1 0 3 0 3-1 3-2 9-8 9-2 0-4 0-6-4-1-1-5-3-8-6-12-9-33-24-47-54-8-16-15-19-21-22-5-2-8-4-10-7 15 65 54 120 108 154 0-5 1-7 2-9 2-1 4-3 8-3 1 0 1 0 2 0-1-1-2-3-3-5-14-18-12-26-3-34z m22-287c1-3 1-3-5-6-8-5-20-12-24-41-1-8-2-18-2-28-69 45-111 122-111 205 0 15 2 29 4 43 0-4 1-9 3-16 6-20 11-24 23-24 8 0 19 0 40-19 22-20 41-29 55-36 16-8 23-12 26-22 3-11-1-20-4-28-3-8-7-17-5-28z m30 353c-2 4-6 7-12 7 32 11 68 16 104 12-4-16-13-25-27-29-45-10-67-18-77-27 0 2-1 4-1 6 0 4 1 12 8 18 5 5 6 9 5 13z m63-464c-40 0-78 10-112 28 1 13 1 24 3 34 3 23 11 27 18 31 5 3 13 8 11 21-1 7 1 13 4 20 4 9 8 21 4 37-5 16-17 22-32 29-14 7-32 16-53 35-24 22-39 22-47 22-6 0-8 0-12 15-4 16-3 16 2 19 7 3 18 7 27 27 13 27 32 41 44 50 1 1 2 1 3 2 2-4 5-8 10-8 6 0 12 5 20 14 7 9 10 15 10 21 0 5-4 9-7 11-3 3-5 4 5 16 10 13 12 19 10 23-1 2-3 5-8 5-1 0-2 0-3 0 6 3 16 6 24 6-10-11-11-27-7-37 2-6 6-9 11-9 1 0 5 0 8 4 6 9 42 19 72 26 19 4 32 18 37 40 19-3 37-9 54-17-1-2-6-11-18-15l-4-1c-9-3-16-5-18-11-3-6-1-13 2-19 0-1 0-1 0-1-3-5-20-9-34-10-1 0-2-1-3-1-1-1-19-12-21-30-1-10 3-20 11-29 2-2 4-4 3-6 0-2-6-7-11-11-17-13-43-32-31-79 11-43 38-52 59-52 15 0 28 5 34 7 6-5 21-25 14-76-3-29 0-52 11-64 6-7 14-11 22-11 14 0 29 11 43 29 36 50 45 73 39 106-3 13 4 18 15 25 6 4 14 9 14 17 0 2 1 3 4 5 9 7 17 15 4 37 0 1-1 1-1 2 1 0 3 0 6 0 2-11 2-23 2-34 0-134-107-243-238-243z"/>
<glyph glyph-name="d-warning" unicode="&#120;" d="M256 319c-4 0-8-4-8-8l0-96c0-4 4-7 8-7 4 0 8 3 8 7l0 96c0 4-4 8-8 8z m0-131c-4 0-8-3-8-7l0-16c0-4 4-7 8-7 4 0 8 3 8 7l0 16c0 4-4 7-8 7z m21 208c-4 8-12 12-21 12-9 0-17-4-21-12l-152-257c-4-7-4-16 0-23 5-8 13-12 22-12l302 0c9 0 17 4 22 12 4 7 4 16 0 23z m138-273c-1-1-3-4-8-4l-302 0c-5 0-7 3-8 4-1 2-2 5 0 9l151 256c3 4 6 5 8 5 2 0 5-1 8-5l151-256c2-4 1-7 0-9z"/>
<glyph glyph-name="d-trash-can" unicode="&#121;" d="M143 373c0 0-7 0-7-6 0-7 7-7 7-7l226 0c0 0 7 0 7 7 0 6-7 6-7 6z m26-269l-20 242 13 0 20-228 147 0 21 228 13 0-20-242z m67 304c-13 0-13-14-13-14l0-7 13 0 0 7 40 0 0-7 13 0 0 7c0 0 0 14-13 14l-40 0z m-37-62l10-207 14 0-10 207z m101 0l-11-207 14 0 10 207z m-51 0l0-207 14 0 0 207z"/>
<glyph glyph-name="d-thermometer" unicode="&#122;" d="M294 179l0 231c0 21-16 38-38 38-22 0-38-18-38-38l0-231c-16-11-26-31-26-51 0-36 28-64 64-64 36 0 64 28 64 64 0 20-10 40-26 51z m-38-102c-28 0-51 23-51 51 0 19 10 36 25 45l0 237c0 14 12 25 26 25 14 0 26-11 26-25l0-237c15-9 25-26 25-45 0-28-23-51-51-51z m8 76l0 0 0 160c0 5-2 7-7 7-4 0-7-3-7-7l0-160c-11-3-20-13-20-25 0-15 12-26 26-26 15 0 26 11 26 26 0 12-8 22-18 25z"/>
<glyph glyph-name="graph-2" unicode="&#65;" d="M470 64l-428 0c-1 0-2 1-2 3 0 1 1 3 2 3l428 0c1 0 2-2 2-3 0-2-1-3-2-3z m-277 25l-87 0 0 184 87 0z m-81 5l76 0 0 174-76 0z m187-5l-86 0 0 261 86 0z m-81 5l76 0 0 251-76 0z m188-5l-87 0 0 359 87 0z m-82 5l76 0 0 349-76 0z"/>
<glyph glyph-name="graph-3" unicode="&#66;" d="M114 104l84 0 0-27-84 0z m-42 344l-8 0 0-384 384 0 0 8-376 0z m167-245l84 0 0-126-84 0z m125 132l84 0 0-258-84 0z"/>
<glyph glyph-name="l-gavel" unicode="&#67;" d="M508 162l-244 125c-1 1-4 3-6 8-1 4-1 9 2 15l26 50 1 0c3 1 6 2 7 5l12 19c2 3 2 5 1 7-1 3-2 5-4 6l-98 50c-1 1-3 1-4 1-4 0-7-2-9-6l-8-21c-2-3-1-6 0-8l1-2-94-183-2 0c-2-1-5-3-6-5l-12-20c-2-2-2-4-1-6 1-3 2-5 4-7l98-49c1-1 2-1 4-1 3 0 6 2 8 6l9 21c1 3 0 6-1 8l0 1 26 53c4 7 9 11 15 11 4 0 6-1 6-2l244-125c2-1 4-1 6-1 4 0 9 2 11 7l13 26c2 3 2 6 1 9-1 4-3 6-6 8z m-308 279l101-51-14-23-16 9-81 41z m-24-294l-101 51 15 22 96-49z m10 36l-87 44 92 180 88-44z m320-35l-13-25c-1-2-2-3-4-3-1 0-2 0-3 1l-243 124c0 0 0 0-1 0-1 1-5 2-9 2l-5 0 17 32 5 12 3-4c2-3 4-4 5-5 1-1 2-1 2-2l0 0 1 0 244-125c1-1 2-2 2-3 0-1 0-3-1-4z m-277-76l-228 0c-2 0-4-2-4-4 0-2 2-4 4-4l228 0c2 0 4 2 4 4 0 2-2 4-4 4z"/>
<glyph glyph-name="l-scale" unicode="&#68;" d="M416 403c0 4-3 7-7 7l-151 0 0 31c0 4-3 7-7 7-4 0-8-3-8-7l0-31-151 0c0 0-1 0-1 0-1 0-1 0-1 0-3 0-6-2-7-5l-80-201c0 0 0 0 0 0l0 0c-1-1-1-1-1-2 0 0 0 0 0 0 0-1 0-1 0-1 0-1 0-1 1-2 0 0 0 0 0-1 0 0 1-1 1-1 0 0 0 0 0-1 0 0 0 0 0 0 2-1 38-34 92-34 32 0 63 12 93 34 2 2 3 6 2 9l-90 190 142 0 0-293c0-1 1-2 1-3l-54-21c-4-2-5-6-4-9 1-3 4-5 7-5 1 0 2 0 2 1l56 22 55-22c1-1 1-1 2-1 3 0 6 2 7 5 2 3 0 7-4 9l-54 21c1 1 1 2 1 3l0 293 140 0-77-191 0 0c0-1 0-1 0-2 0 0 0 0 0 0 0-1 0-1 0-1 0-1 0-1 0-2 0 0 0 0 0 0 1-1 1-2 1-2 1 0 1 0 1-1 0 0 0 0 0 0 1-1 37-34 91-34l0 0c32 0 63 12 93 34 3 2 4 6 2 9z m-320-226c-27 0-49 9-64 17l128 0c-21-11-43-17-64-17z m77 32l-153 0 71 176z m241-32l0 0c-27 0-49 9-63 17l127 0c-21-11-42-17-64-17z m-76 32l71 176 82-176z"/>
<glyph glyph-name="my-profile-settings" unicode="&#87;" d="M269 112l-26 0c-7 0-12 5-13 12l-4 23c-8 3-17 6-24 10l-20-14c-5-4-13-4-18 1l-18 19c-5 5-6 12-2 18l14 19c-4 8-8 16-10 25l-24 3c-7 2-12 7-12 14l0 26c0 7 5 13 12 14l23 4c3 8 6 16 10 24l-14 20c-4 5-3 13 2 18l18 18c5 5 13 6 18 2l20-14c7 4 15 8 24 10l4 24c1 7 7 12 13 12l27 0c7 0 12-5 13-12l4-23c9-3 17-6 25-11l20 14c5 4 13 4 18-1l18-19c5-4 6-12 2-18l-14-19c4-8 8-16 10-24l23-4c7-1 12-7 12-14l0-26c0-7-5-12-12-13l-23-4c-3-9-6-17-10-25l14-19c4-6 3-14-2-18l-18-19c-5-4-13-5-18-1l-20 14c-7-5-15-8-24-10l-4-24c-1-7-7-12-14-12z m-68 53c1 0 1 0 2 0 9-5 18-9 27-11 1 0 3-1 3-3l4-26c0-3 3-5 6-5l26 0c3 0 6 2 7 5l4 26c0 2 1 3 2 3 10 2 19 6 28 11 1 1 3 1 4 0l21-15c3-2 6-2 8 1l19 18c2 2 2 6 0 8l-15 22c-1 1-1 2 0 4 5 8 9 18 11 27 1 1 2 3 3 3l26 4c3 0 5 3 5 6l0 26c0 3-2 6-5 7l-26 4c-1 0-2 1-3 2-2 10-6 19-11 28-1 1-1 3 0 4l15 21c2 3 2 6 0 8l-19 19c-2 2-5 2-8 1l-21-16c-1-1-3-1-4 0-9 5-19 9-28 12-2 0-3 1-3 3l-4 26c-1 3-3 5-6 5l-27 0c-3 0-5-3-6-5l-5-27c0-1-1-2-2-3-10-2-19-6-27-11-1-1-3-1-5 0l-21 15c-2 2-6 1-8-1l-18-19c-2-2-2-5-1-7l16-22c0-1 0-3 0-4-5-9-9-18-12-27 0-2-1-3-3-3l-26-4c-3-1-5-3-5-6l0-27c0-3 3-5 5-6l27-5c1 0 2-1 3-2 2-10 6-19 11-27 1-1 1-3 0-5l-15-21c-2-2-1-6 1-8l19-18c2-2 5-2 7-1l22 16c1 0 2 0 2 0z m55 31c-33 0-59 27-59 60 0 33 26 59 59 59 33 0 60-26 60-59 0-33-27-60-60-60z m0 112c-28 0-52-24-52-52 0-29 24-52 52-52 29 0 52 23 52 52 0 28-23 52-52 52z"/>
<glyph glyph-name="my-profile-edit" unicode="&#88;" d="M150 144c0 0 0 0 0 0l65 11c0 0 0 0 0 0 1 0 1 0 1 0 0 0 1 1 1 1 0 0 0 0 0 0l149 149c1 1 1 3 1 4 0 1 0 3-1 4l-54 54c-2 2-5 2-7 0l-148-150c0 0 0 0 0 0-1 0-1-1-1-1 0 0 0-1 0-1-1 0-1 0-1-1l-10-64c-1-2 0-3 1-4 1-1 2-2 4-2z m159 212l46-47-141-142-47 47z m-145-153l32-32 7-8-47-8z"/>
<glyph glyph-name="menu-routes" unicode="&#89;" d="M405 376c5 0 9-4 9-9l0-18c0-5-4-9-9-9l-110 0-37-126 17 0 36 111c0 2 2 3 5 3l51 0c9 0 18-6 20-15l0 0 14-37 65-19c8-1 14-8 14-16l0-51c0-8-7-14-15-14l-18 0c-2-22-22-40-45-40-24 0-43 17-44 40l-203 0c-2-22-21-40-45-40-25 0-45 19-45 43 0 24 20 43 45 43 10 0 19-3 27-8l18 0-121 82c-1 1-2 3-2 4l0 67c0 5 5 9 10 9z m-1-9l-362 0 0-64 130-89 75 0 39 132c1 2 3 4 5 4l113 0z m-37-49l-48 0-43-133 82 0c3 21 22 37 44 37 22 0 41-16 44-37l19 0c3 0 5 2 5 5l0 51c0 3-3 6-6 7 0 0 0 0-1 0l-67 19c-2 0-3 2-4 3l-14 40c0 0 0 0 0 0-1 4-7 8-11 8z m35-105c-19 0-35-15-35-34 0-18 16-33 35-33 19 0 35 15 35 33 0 19-16 34-35 34z m-292 0c-19 0-35-15-35-34 0-18 16-33 35-33 19 0 35 15 35 33 0 19-16 34-35 34z m162-9l-125 0c4-6 6-12 7-19l112 0z m130-4c12 0 21-9 21-21 0-11-9-21-21-21-12 0-22 10-22 21 0 12 10 21 22 21z m-292 0c12 0 22-9 22-21 0-11-10-21-22-21-12 0-21 10-21 21 0 12 9 21 21 21z m292-10c-6 0-11-5-11-11 0-6 5-11 11-11 6 0 12 5 12 11 0 6-6 11-12 11z m-292 0c-6 0-11-5-11-11 0-6 5-11 11-11 6 0 12 5 12 11 0 6-6 11-12 11z"/>
<glyph glyph-name="menu-regions" unicode="&#90;" d="M256 416c-87 0-157-72-157-160 0-88 70-160 157-160 87 0 157 72 157 160 0 88-70 160-157 160z m138-144c4-8 2-10-1-12-2-2-6-5-6-10 0-1-3-3-5-4-6-3-16-9-13-24 3-18-1-30-23-60-10-13-21-18-28-11-5 6-7 19-4 34 6 45-14 57-15 57-1 0-1 1-2 1 0 0-1-1-2-1 0 0-9-5-20-5-14 0-24 9-29 27-6 24 7 33 16 41 6 4 10 7 11 13 0 3-1 6-4 9-4 4-6 8-5 12 1 6 6 11 8 12 7 1 22 3 27 10 1 3 2 5 0 8-1 4-1 5-1 5 0 1 4 2 6 3l3 1c10 3 14 10 16 13 40-21 69-60 78-105-4 0-7-2-9-4-1-3-1-6 2-10z m-210 81c1 0 1-1 2-1 0 0 0-2-5-7-3-4-4-5-5-6-1 1-1 2-1 2 0 2-1 6-5 6-1 0-2-1-3-3-1 0-3-2-5-3-8-6-21-16-30-34-5-10-9-12-13-14-3-1-5-2-6-4 9 40 34 74 67 96 0-3 1-5 2-6 1-1 2-2 5-2 0 0 0 0 1 0-1-1-2-1-2-3-9-11-7-16-2-21z m14-179c0-2 0-3-3-4-5-3-13-8-15-26-1-5-2-11-2-17-42 28-69 76-69 128 0 9 1 18 3 27 0-3 0-6 1-10 4-13 7-15 15-15 5 0 11-1 25-12 14-13 25-19 34-23 10-5 14-7 16-13 2-8 0-13-2-18-2-5-4-11-3-17z m18 220c-1 3-3 4-7 5 20 7 43 10 65 7-2-10-8-16-17-18-28-6-42-11-48-17 0 1 0 2 0 4 0 2 0 7 4 11 3 3 4 6 3 8z m40-290c-25 0-49 7-70 18 0 8 1 15 2 21 1 14 7 17 11 19 3 2 8 5 7 13-1 5 1 8 2 13 3 6 6 13 3 23-3 10-11 14-20 18-9 5-20 10-33 22-15 14-24 14-30 14-4 0-4 0-7 9-2 10-2 10 1 12 5 2 11 5 17 17 8 17 20 26 27 31 1 1 2 1 2 2 1-3 3-5 7-5 3 0 7 2 12 8 5 6 7 10 7 13-1 4-3 6-5 7-2 2-3 3 3 10 6 9 8 12 6 15 0 1-1 3-4 3-1 0-2 0-2-1 3 2 9 4 14 4-6-7-7-16-4-23 1-3 4-6 7-6 1 0 3 1 5 3 4 6 26 12 45 16 12 3 20 12 23 26 12-3 23-6 34-11-1-2-4-7-11-10l-3 0c-6-2-10-3-11-7-2-4-1-8 1-12 0 0 0-1 0-1-2-3-12-5-21-6-1 0-2 0-2-1-1 0-12-7-13-18-1-6 2-13 7-18 1-2 2-3 2-4 0-2-4-4-7-7-11-8-27-20-19-49 6-27 23-33 36-33 10 0 18 3 22 5 3-4 13-16 9-48-3-18 0-32 6-40 4-4 9-7 14-7 9 0 18 7 27 19 23 31 28 45 24 65-2 9 2 12 9 16 5 3 9 6 9 11 0 1 1 1 3 3 5 4 10 9 3 23-1 1-1 1-1 1 0 0 2 0 4 0 0-7 1-14 1-21 0-84-67-152-149-152z"/>
<glyph glyph-name="producers-linegraph" unicode="&#48;" d="M64 448l12 0 0-372 372 0 0-12-384 0z m52-180c0 0 14-60 73-60 29 0 62 144 103 144 38 0 52-103 76-127 17-17 80-5 80-5l0-24c0 0-55-12-83 1-37 17-58 128-73 128-19 0-51-138-98-141-87-5-94 72-94 72z"/>
<glyph glyph-name="producers-store-network" unicode="&#49;" d="M256 464c-44 0-79-36-79-79 0-43 33-77 74-79l0-26-90 0c-12 0-21-10-21-22l0-16-10 9c-1 1-3 2-4 1-4 0-5-5-3-8l18-16c1-2 5-2 6 0l18 16c1 2 1 5 0 7-2 2-5 2-7 0l-9-9 0 16c0 7 5 13 12 13l190 0c7 0 12-6 12-13l0-56-10 9c-1 1-2 2-3 2-4-1-5-6-3-8l18-17c1-2 4-2 6 0l18 17c2 1 2 5 0 7-2 2-5 1-7-1l-10-9 0 56c0 12-9 22-21 22l-91 0 0 26c42 2 75 37 75 79 0 43-35 79-79 79z m0-9c39 0 70-32 70-70 0-39-31-70-70-70-39 0-70 31-70 70 0 38 31 70 70 70z m-157-234c-12 0-22-10-22-21l0-91c0-12 10-21 22-21l90 0c12 0 22 9 22 21l0 91c0 11-10 21-22 21z m0-9l90 0c7 0 12-6 12-13l0-90c0-7-5-12-12-12l-90 0c-7 0-13 5-13 12l0 90c0 7 6 13 13 13z m224-31c-12 0-22-9-22-21l0-91c0-11 10-21 22-21l90 0c12 0 22 10 22 21l0 91c0 12-10 21-22 21z m0-9l90 0c7 0 12-5 12-12l0-91c0-6-5-12-12-12l-90 0c-7 0-13 6-13 12l0 91c0 7 6 12 13 12z"/>
<glyph glyph-name="producers-stores" unicode="&#50;" d="M256 408l-162-148 47 0 0-156 230 0 0 156 47 0z m110-143l0-156-220 0 0 156-39 0 34 31 1 1 114 104 114-104 1-1 34-31z"/>
<glyph glyph-name="r-truck" unicode="&#51;" d="M412 367c-1 1-3 2-4 2l-72 0c-3 0-5-2-5-5 0-4 2-6 5-6l69 0 100-125 0-58-8 0c-3 0-5-3-5-6 0-3 2-5 5-5l8 0 0-23-48 0 0 2c-8 24-31 40-56 40-26 0-48-16-56-40l-1-2-36 0 0 295 28 0c3 0 6 2 6 5 0 3-3 6-6 6l-269 0c-2 0-4-1-5-3l-61-106c-1-1-1-2-1-3l0-200c0-3 2-5 6-5l18 0 0-4c0-1 0-1 0-2 0-3 2-5 5-5 3 0 6 2 6 5 0 45 36 81 81 81 45 0 81-36 81-81 0-3 2-5 5-5 4 0 6 2 6 5 0 1 0 1 0 2l0 4 134 0 0-3c0-1 0-2 0-3 0-32 26-59 59-59 32 0 59 27 59 59 0 1 0 2 0 3l-1 3 52 0c3 0 5 2 5 4l0 102c0 1 0 2-1 2z m-115-226l-91 0 0 2c-9 43-47 73-90 73-44 0-82-30-90-73l-1-2-14 0 0 193 59 102 227 0 0-295z m104-65c-27 0-48 22-48 48 0 26 21 48 48 48 26 0 48-22 48-48 0-26-22-48-48-48z m-65 176l114 0c3 0 6 2 6 5 0 3-3 6-6 6l-108 0 0 67c0 3-3 6-6 6-3 0-5-3-5-6l0-73c0-3 2-5 5-5z m-161-128c0 33-27 59-59 59-33 0-59-26-59-59 0-32 26-59 59-59 32 0 59 27 59 59z m-59-48c-27 0-48 22-48 48 0 26 21 48 48 48 26 0 48-22 48-48 0-26-22-48-48-48z"/>
<glyph glyph-name="sm-bell" unicode="&#36;" d="M394 138c-10 0-17 2-17 29l0 106c0 63-44 118-99 127-7 2-14 2-21 2-7 0-14 0-21-2-57-9-99-64-99-127l0-106c0-27-7-29-18-29l-31 0 0-23 336 0 0 23z m-238 0c2 7 3 16 3 29l0 106c0 52 35 97 80 104 6 2 11 2 18 2 5 0 10 0 17-2 46-7 80-52 80-104l0-106c0-11 2-22 6-29z m134-57l-66 0c-7 0-12-5-12-13 0-7 5-12 12-12l66 0c7 0 12 5 12 12 0 8-5 13-12 13z m-34 351c6 0 12 5 12 12 0 7-6 12-12 12-6 0-12-5-12-12 0-7 6-12 12-12z"/>
<glyph glyph-name="sm-chat" unicode="&#37;" d="M346 80l-68 101-214 0 0 251 384 0 0-251-81 0z m-259 123l203 0 45-66 13 66 77 0 0 207-338 0z"/>
<glyph glyph-name="sm-clock" unicode="&#38;" d="M256 80c97 0 176 79 176 176 0 97-79 176-176 176-97 0-176-79-176-176 0-97 79-176 176-176z m0 331c86 0 155-69 155-155 0-86-69-155-155-155-86 0-155 69-155 155 0 86 69 155 155 155z m83-145l-73 0 0 114-20 0 0-134 93 0z"/>
<glyph glyph-name="sm-info" unicode="&#39;" d="M256 282c-6 0-11-7-11-12l0-123c0-6 6-11 11-11 5 0 11 6 11 11l0 123c0 7-5 12-11 12z m0 84c-6 0-11-6-11-11l0-24c0-6 6-11 11-11 5 0 11 6 11 11l0 24c0 8-5 11-11 11z m0 92c-109 0-202-93-202-202 0-109 93-202 202-202 109 0 202 93 202 202 0 109-93 202-202 202z m0-381c-98 0-179 81-179 179 0 98 81 179 179 179 98 0 179-81 179-179 0-98-81-179-179-179z"/>
<glyph glyph-name="sort-by" unicode="&#40;" d="M256 241l69 0-34-40-35-40-35 40-34 40z m0 30l-69 0 69 80 35-40 34-40z"/>
<glyph glyph-name="truck" unicode="&#41;" d="M426 393c6 0 11-5 11-11l0-20c0-6-5-10-11-10l-126 0-42-145 20 0 40 127c1 3 3 4 6 4l58 0c11 0 21-7 23-17l1 0 16-43 74-21c9-1 16-9 16-18l0-58c0-10-8-17-18-17l-21 0c-2-25-24-45-50-45-27 0-49 20-51 45l-232 0c-2-25-24-45-51-45-28 0-51 22-51 49 0 27 23 50 51 50 12 0 22-4 31-11l21 0-139 95c-1 1-2 3-2 5l0 76c0 5 5 10 11 10z m-1-11l-414 0 0-72 149-103 86 0 45 152c0 2 3 4 5 4l129 0z m-43-55l-54 0-49-152 93 0c4 24 25 43 51 43 25 0 47-19 50-43l21 0c4 0 6 2 6 6l0 58c0 3-3 7-7 8 0 0 0 0 0 0l-78 22c-1 0-3 1-3 3l-17 45c0 0 0 0 0 1-1 5-7 9-13 9z m41-120c-22 0-40-18-40-39 0-21 18-38 40-38 21 0 39 17 39 38 0 21-17 39-39 39z m-334 0c-22 0-40-18-40-39 0-21 18-38 40-38 22 0 40 17 40 38 0 21-18 39-40 39z m185-10l-143 0c4-7 7-14 9-22l127 0z m149-5c13 0 24-11 24-24 0-13-11-24-24-24-14 0-25 11-25 24 0 13 11 24 25 24z m-334 0c13 0 25-11 25-24 0-13-12-24-25-24-13 0-25 11-25 24 0 13 12 24 25 24z m334-11c-8 0-13-6-13-13 0-7 5-12 13-12 7 0 13 5 13 12 0 7-6 13-13 13z m-334 0c-7 0-13-6-13-13 0-7 6-12 13-12 7 0 13 5 13 12 0 7-6 13-13 13z"/>
<glyph glyph-name="arrow-down" unicode="&#101;" d="M366 301l-19 19-91-91-91 91-19-19 110-109 0 0 0 0z"/>
<glyph glyph-name="close" unicode="&#102;" d="M328 168l-160 160 16 16 160-160z m-144 0l-16 16 160 160 16-16z"/>
<glyph glyph-name="d-box" unicode="&#103;" d="M184 400l151-67-5-13-151 67z m72-320l-160 66 0 220 160 66 160-73 0-219z m-146 76l146-61 146 54 0 201-146 67-146-60z m-4 212l153-63-6-13-153 63z m157-280l-14 0 0 215 158 57 4-12-148-55z"/>
<glyph glyph-name="d-folder" unicode="&#104;" d="M103 108l-16 0 0 304 110 0 16-40 188 0 0-33-16 0 0 17-183 0-16 40-83 0z m297-8l-314 0 26 247 314 0z m-296 16l282 0 22 215-282 0z"/>
<glyph glyph-name="d-gears" unicode="&#105;" d="M133 325c-25 0-44-20-44-45 0-25 19-45 44-45 24 0 44 20 44 45 0 25-20 45-44 45z m0-77c-18 0-32 14-32 32 0 18 14 32 32 32 17 0 31-14 31-32 0-18-14-32-31-32z m168-48c-1 0-2 0-4 0-8-2-14-11-12-20 1-8 8-14 16-14 1 0 2 0 3 0 9 2 15 11 13 20-2 8-9 14-16 14z m3-19c-1-1-1-1-3-2 0 0 0 0 0 0-2 0-4 1-4 3 0 2 0 3 1 3 0 1 1 2 2 2 0 0 0 0 1 0 1 0 3-1 3-3 1-1 0-2 0-3z m111 143c-2 0-4 0-5-1-14-3-23-17-21-31 3-13 14-21 26-21 2 0 3 0 5 0 14 3 23 17 20 31-2 13-13 22-25 22z m11-34c-2-3-5-5-9-6 0 0-1 0-2 0-6 0-12 4-13 10-1 4 0 8 2 11 2 3 5 5 8 5 1 1 2 1 3 1 6 0 12-5 13-11 0-4 0-7-2-10z m86 19l-3 16c-2 7-8 12-15 12-1 0-1 0-1 0l-8 1c-2 4-4 7-7 10l3 8c1 3 1 7 1 10-1 4-4 8-7 10l-13 9c-2 1-5 2-8 2-5 0-9-2-11-5l-7-5c-4 1-8 2-12 2l-3 8c-3 6-8 10-15 10-1 0-2 0-3-1l-15-3c-7-1-12-8-12-16l-1-8c-3-2-7-4-10-7l-8 3c-2 0-4 1-6 1-5 0-10-3-13-7l-8-13c-3-4-3-8-3-12 1-3 3-6 5-8l5-7c-1-4-2-8-2-12l-7-4c-7-3-11-10-10-18l3-15c1-4 3-8 6-10-1-1-3-2-4-3l-4-4c-3 1-6 2-9 2l-3 5c-2 6-7 10-14 10-1 0-2 0-3 0l-13-3c-3-1-7-3-9-6-2-3-3-6-3-9l0-6c-3-2-5-4-7-5l-6 1c-2 1-4 2-6 2-5 0-10-3-12-7l-1-1c2 4 3 8 4 12l14 4c8 1 14 8 14 17l0 22c0 8-6 16-14 17l-14 4c-2 7-5 14-8 21l7 13c2 3 3 7 3 10 0 5-2 9-5 12l-15 16c-3 3-7 5-12 5-3 0-7-1-10-3l-12-8c-7 4-14 7-21 9l-4 15c-1 8-8 14-16 14l-22 0c-8 0-15-6-16-14l-5-15c-7-2-14-5-20-9l-13 8c-3 2-6 3-10 3-4 0-8-2-11-5l-16-16c-6-6-6-15-1-22l7-13c-4-7-7-14-9-21l-14-4c-8-1-14-8-14-17l0-22c0-9 6-16 14-17l14-4c2-8 5-15 9-21l-7-14c-5-6-5-16 1-22l16-15c3-4 7-5 11-5 4 0 7 1 10 3l13 7c6-3 13-6 20-8l5-15c1-8 8-14 16-14l22 0c8 0 15 6 16 14l4 15c7 2 14 5 21 8l12-7c3-2 7-3 10-3 3 0 6 1 9 2 0 0 0 0 0-1l3-13c1-7 7-12 14-12 1 0 1 0 1 0l6-1c1-2 3-5 5-7l-2-6c-3-7-1-15 5-19l11-7c3-2 6-3 9-3 4 0 8 2 10 5l5 4c3-1 6-1 8-2l3-5c2-6 8-10 14-10 1 0 2 0 3 0l13 3c4 1 7 3 10 7 1 2 2 5 2 8l0 6c3 2 5 4 8 5l5-1c2-1 4-2 6-2 5 0 10 3 13 7l7 11c4 7 3 15-2 20l-4 5c1 3 2 6 2 9l5 2c3 1 5 3 7 6 2 4 3 8 2 12l-2 13c0 0-1 1-1 2 2 0 4 2 5 3l6 5c4-1 8-1 12-2l4-7c2-6 8-10 15-10 1 0 2 0 3 0l15 3c7 2 12 8 12 16l1 8c3 2 7 5 10 7l8-2c2-1 4-2 6-2 5 0 10 3 13 7l8 14c4 6 3 15-2 20l-5 6c1 4 1 8 2 12l7 4c3 1 6 4 7 6 3 4 3 8 3 12z m-305-125c-1 0-2 0-2 1l-21 11c-9-6-19-10-30-13l-7-22c0-3-1-4-3-4l-22 0c-2 0-4 1-4 4l-6 22c-11 3-22 7-31 13l-20-11c-1-1-2-1-3-1-1 0-2 0-2 1l-16 16c-1 1-1 4 0 5l11 21c-6 9-10 20-12 31l-23 7c-2 0-3 1-3 4l0 22c0 2 1 4 3 4l23 6c2 12 6 22 12 32l-11 21c-1 1-1 3 0 5l16 16c0 1 1 1 2 1 1 0 2 0 3-1l20-12c9 6 20 11 31 13l6 23c0 2 2 4 4 4l22 0c2 0 3-2 3-4l7-23c11-2 21-7 30-13l21 12c0 1 1 1 2 1 1 0 2 0 3-1l15-16c2-2 2-4 0-5l-11-21c6-10 10-20 13-32l22-6c2 0 4-2 4-4l0-22c0-2-2-4-4-4l-22-7c-3-11-7-22-13-31l11-21c2-1 2-4 0-5l-15-16c-1-1-2-1-3-1z m164 4l-12-6c0-7-2-14-4-20l9-11c1-1 1-2 1-3l-8-12c0 0-1-1-2-1 0 0 0 1-1 1l-13 4c-5-5-10-8-17-11l-1-15c0-1 0-2-2-2l-12-3c-1 0-1 0-1 0-1 0-2 1-2 2l-7 13c-6 0-13 1-19 3l-11-9c0 0-1-1-2-1 0 0 0 0-1 1l-11 7c-1 1-1 2 0 3l4 14c-5 5-9 10-11 17l-14 1c0 0 0 0-1 0-1 0-2 1-2 2l-2 13c-1 1 0 3 1 3l13 6c0 7 1 14 4 20l-9 11c-1 1-2 2-1 3l7 12c1 0 1 1 2 1 1 0 1 0 1-1l14-4c4 5 10 9 16 11l1 15c0 1 1 2 2 2l13 3c0 0 0 0 0 0 1 0 2-1 3-2l6-12c7-1 13-2 19-4l11 9c1 1 1 1 2 1 0 0 1 0 1-1l11-7c1-1 2-2 1-3l-4-14c4-5 8-10 11-17l14-1c0 0 0 0 0 0 1 0 2-1 2-2l3-13c0-1-1-2-2-3z m126 115l-14-7c0-8-2-16-5-24l11-13c1 0 1-2 1-3l-9-13c-1-1-1-2-2-2-1 0-1 1-2 1l-15 5c-6-6-12-10-19-13l-2-17c0-2 0-3-2-3l-15-3c0 0 0 0-1 0-1 0-2 0-2 2l-8 15c-8 0-15 1-22 4l-13-11c0 0-1-1-2-1-1 0-1 0-2 1l-12 8c-2 1-2 3-1 4l5 16c-6 6-10 12-13 20l-16 1c-1 0-1 0-1 0-1 0-2 1-2 2l-3 16c-1 1 0 3 2 3l14 8c0 8 2 16 4 23l-10 13c-1 1-2 2-1 4l9 13c0 0 1 1 2 1 0 0 1 0 1-1l16-5c6 6 12 10 19 14l2 16c-1 2 0 3 2 4l15 3c0 0 0 0 0 0 2 0 3-1 3-2l7-15c8 0 16-2 23-5l13 11c0 1 1 1 2 1 0 0 1 0 1 0l13-9c1-1 2-3 1-4l-5-16c5-5 10-12 13-19l16-2c0 0 0 0 1 0 1 0 2-1 2-2l3-15c1-2 0-3-2-4z"/>
<glyph glyph-name="d-industry" unicode="&#106;" d="M229 96l-133 0 0 320 133-60z m-119 13l105 0 0 238-105 48z m306-13l-201 0 0 198 201 0z m-187 13l173 0 0 172-173 0z m-40-13l-54 0 0 81 54 0z m-41 13l28 0 0 54-28 0z m217 145l14 0 0-34-14 0z m-37 0l13 0 0-34-13 0z m-38 0l14 0 0-34-14 0z m-37 0l13 0 0-34-13 0z m112-84l14 0 0-34-14 0z m-37 0l13 0 0-34-13 0z m-38 0l14 0 0-34-14 0z m-37 0l13 0 0-34-13 0z"/>
<glyph glyph-name="d-infographic-factory" unicode="&#107;" d="M440 240l-27 257-68 0-26-256-60-40 0 84-127-85 0 84-132-88 0-181 511 0 0 270-71-47z m-90 251l58 0 26-257-49-33 0 84-59-39z m155-470l-499 0 0 173 120 79 0-84 127 84 0-84 126 84 0-84 126 84z m-429 93l-35 0 0-52 35 0z m-5-48l-26 0 0 45 26 0z m68 48l-35 0 0-52 35 0z m-5-48l-26 0 0 45 26 0z m68 48l-35 0 0-52 35 0z m-5-48l-26 0 0 45 26 0z m67 48l-34 0 0-52 34 0z m-4-48l-26 0 0 45 26 0z"/>
<glyph glyph-name="d-infographic-warehouse" unicode="&#108;" d="M257 389l256-173 0 39-256 172-257-172 0-39 257 174z m-254-135l0 0 254 170 253-170 0-33-253 172-254-172z m12-169l144 0 0 130 195 0 0-130 144 0 0 134-242 163-241-163z m3 133l238 161 239-161 0-130-139 0 0 130-200 0 0-130-138 0z m152-18l172 0 0-5-172 0z m0-19l172 0 0-5-172 0z m0-18l172 0 0-5-172 0z m0-18l172 0 0-5-172 0z m0-19l172 0 0-5-172 0z m0-18l172 0 0-5-172 0z m0-18l172 0 0-5-172 0z"/>
<glyph glyph-name="d-tag" unicode="&#109;" d="M107 408c-3-1-4-5-2-7l47-47-19-20c-1 0-1-1-1-2l0-78c0-1 0-2 1-2l147-147c1-1 4-1 5 0l122 122c2 1 2 4 0 5l-147 147c0 1-1 1-2 1l-78 0c0 0 0 0-1 0 0 0-1-1-2-1l-6-6c-1-1-1-4 0-6 2-1 5-1 6 1l5 4 74 0 143-142-117-117-143 143 0 74 19 18 23-22c-10-13-10-32 2-44 13-12 34-12 46 0 13 13 13 34 0 46-5 6-12 9-19 10-2 0-4 0-6 0 0 0 0 0 0 0-2 0-4-2-4-4 1-2 3-4 5-4 1 0 3 0 4 0 5 0 11-3 15-7 10-10 10-25 0-35-10-10-26-10-35 0-9 9-10 22-3 32l16-16c2-2 5-2 6 0 1 1 1 4 0 5l-19 19c0 0 0 0 0 1l-79 78c-1 1-2 1-3 1 0 0 0 0 0 0z"/>
<glyph glyph-name="export" unicode="&#110;" d="M384 285l0-184c0-3-3-5-5-5l-246 0c-3 0-5 3-5 5l0 184c0 3 3 6 5 6 3 0 5-3 5-6l0-178 236 0 0 178c0 3 2 6 5 6 2 0 5-3 5-6z m-128-101c3 0 5 2 5 5l0 209 56-58c1-1 3-2 4-2 2 0 3 0 4 2 2 2 2 5 0 7l-65 67c-2 3-6 3-8 0l-65-67c-2-2-2-5 0-7 3-2 6-2 8 0l56 58 0-209c0-3 2-5 5-5z"/>
<glyph glyph-name="faq-coins" unicode="&#111;" d="M256 392c-66 0-120-26-120-58l0-156c0-32 54-58 120-58 66 0 120 26 120 58l0 156c0 32-54 58-120 58z m0-10c65 0 110-25 110-48 0-22-45-47-110-47-65 0-110 25-110 47 0 23 45 48 110 48z m110-194l0-10c0-23-45-48-110-48-65 0-110 25-110 48l0 28c19-20 61-34 110-34 49 0 91 14 110 34z m0 42c0-22-45-47-110-47-65 0-110 25-110 47l0 29c19-20 61-34 110-34 49 0 91 14 110 34z m0 52c0-22-45-47-110-47-65 0-110 25-110 47l0 29c19-20 61-34 110-34 49 0 91 14 110 34z"/>
<glyph glyph-name="faq-form" unicode="&#112;" d="M369 323c0 0 0 0 0 0 0 1 0 2-1 2 0 0 0 1 0 1l-80 90c0 0 0 0 0 0 0 0-1 1-2 1 0 0 0 0-1 0 0 0 0 0 0 0l-140 0c-9 0-15-6-15-15l0-54 10-10 0 64c0 3 2 5 5 5l135 0 0-72c0-8 6-18 15-18l65 0 0-205c0-2-3-5-5-5l-210 0c-3 0-5 3-5 5l0 150-10 10 0-160c0-8 6-15 15-15l210 0c8 0 15 7 15 15l0 210c0 1-1 1-1 1z m-74 4c-3 0-5 5-5 8l0 64 63-72z m-115-85c0-2 2-5 5-5l130 0c2 0 5 3 5 5 0 3-3 5-5 5l-130 0c-3 0-5-2-5-5z m135-35l-130 0c-3 0-5-2-5-5 0-2 2-5 5-5l130 0c2 0 5 3 5 5 0 3-3 5-5 5z m0-40l-130 0c-3 0-5-2-5-5 0-2 2-5 5-5l130 0c2 0 5 3 5 5 0 3-3 5-5 5z m-139 125l-29-29-7 7 0-8 5-6c0 0 0 0 0 0 1 0 1-1 1-1 0 0 0 0 0 0 1 0 1 0 1 0l40-7c0 0 0 0 1 0 0 0 1 1 2 1 0 1 1 2 1 3l-7 40c0 1 0 1 0 1 0 0 0 0 0 0 0 0-1 1-1 1 0 0 0 0 0 0l-43 44 0-9z m8-37l-30 5 5 5 20 20z m-125 97l29 29 42-42 0 9-40 39c-1 2-3 2-4 0l-34-33c0-1-1-2-1-3 0 0 1-1 1-2l78-77 0 9z m81-82l-10 11 0-9 10-10z m0 59l0 9-10 10 0-9z"/>
<glyph glyph-name="faq-home" unicode="&#113;" d="M256 416l-166-152 48 0 0-168 88 0 0 100 60 0 0-100 88 0 0 168 48 0z m113-147l0-5 0 0 0-163-78 0 0 101-70 0 0-101-78 0 0 168-40 0 35 32 0 1 1 0 117 107 117-107 1 0 0-1 35-32z"/>
<glyph glyph-name="faq-icon" unicode="&#114;" d="M258 166l0 163c0 2-1 3-2 3-1 0-2-1-2-3l0-163c0-2 1-3 2-3 1 0 2 1 2 3z m119-13c16-6 31-11 43-11 2 0 3 1 3 2l0 221c0 1-1 2-3 2-12 0-26 5-42 11-19 6-41 14-63 14-25 0-40-11-49-20-3-3-5-7-7-10l-3-5-3 5c-2 3-4 7-7 10-9 9-24 20-49 20-22 0-44-8-63-14-16-6-30-11-42-11-2 0-3-1-3-2l0-221c0-1 1-2 3-2 12 0 28 5 43 11 19 6 40 14 62 14 19 0 34-7 45-19 1-1 1-1 2-1 1 0 1 0 2 1 0 0 0 1 0 1 1 1 0 2 0 2-9 9-24 20-49 20-22 0-44-7-63-14-13-4-26-9-37-10l-3 0 0 216 3 0c11 1 25 6 38 10 19 7 40 14 62 14 45 0 56-35 57-37 0-1 1-2 2-2 1 0 2 1 2 2 0 0 12 37 57 37 21 0 43-7 62-14 13-4 27-9 38-10l3 0 0-216-3 0c-11 1-24 6-37 10-19 7-41 14-63 14-25 0-40-11-49-20-1-1-1-2 0-3 1-1 1-1 2-1 1 0 1 0 2 1 11 12 26 19 45 19 21 0 43-8 62-14z m-110-23l-22 0-1 1c-8 8-23 18-47 18-22 0-44-7-63-14-16-5-30-10-42-10-2 0-3-1-3-3 0-1 1-2 3-2 12 0 28 5 43 11 19 6 40 14 62 14 19 0 34-7 45-19 1-1 1-1 2-1l24 0c1 0 1 0 2 1 11 12 26 19 45 19 21 0 43-8 62-14 15-6 31-11 43-11 2 0 3 1 3 2 0 2-1 3-3 3-12 0-26 5-42 10-19 7-41 14-63 14-24 0-39-10-47-18z"/>
<glyph glyph-name="faq-links" unicode="&#115;" d="M173 112c-14 0-27 5-38 17-21 21-21 57 0 80 0 0 0 0 36 38 3 3 9 3 12 0 3-4 3-9 0-13 0 0-35-37-36-38-14-15-14-40 0-55 14-15 38-15 52 0 3 3 35 37 36 38 4 4 9 4 12 0 4-3 4-9 1-12-1-1-1-1-37-39-10-11-24-16-38-16z m-1 114c-2 0-4 1-6 3-3 4-3 10 0 13 1 0 14 14 16 16 15 16 37 21 56 14 4-2 7-7 5-12-1-5-6-7-11-5-13 5-28 1-38-9-2-3-16-17-16-17-2-2-4-3-6-3z m65-67c-3 0-5 1-7 2-3 4-3 9 0 13l16 17c10 10 13 26 9 40-2 5 0 10 5 12 4 1 9-1 11-6 7-21 2-43-12-59l-16-17c-2-2-4-2-6-2z m98 103c-2 0-4 1-6 3-3 4-3 9 0 13l36 38c14 15 14 40 0 55-14 15-38 15-52 0-1-1-36-38-36-38-4-4-9-4-12 0-4 3-4 9 0 13 36 38 36 38 36 38 21 22 55 21 76-1 21-22 21-57 0-80l-36-38c-2-2-4-3-6-3z m-43-25c-6 0-12 1-18 3-4 2-7 7-5 12 1 5 6 7 11 5 13-5 28-1 38 9l16 17c3 3 9 3 12 0 3-4 3-9 0-13l-16-17c-10-10-24-16-38-16z m-43 32c-3 0-7 2-8 6-7 21-2 43 13 59l15 17 13-13-16-17c-10-10-13-26-9-40 2-5 0-10-5-12-1 0-2 0-3 0z m-37-69c-2 0-5 1-6 3-4 4-4 9 0 13l88 93c4 3 9 3 12 0 4-4 4-9 0-13l-88-93c-2-2-4-3-6-3z"/>
<glyph glyph-name="faq-qas" unicode="&#116;" d="M256 416c-87 0-158-72-158-160 0-88 71-160 158-160 87 0 158 72 158 160 0 88-71 160-158 160z m0-8c83 0 150-68 150-152 0-84-67-152-150-152-83 0-150 68-150 152 0 84 67 152 150 152z m0-32c-20 0-35-9-45-21-9-13-13-29-13-42 0-3 2-5 4-5 2 0 4 2 4 5 0 12 4 26 12 37 8 11 20 19 38 19 25 0 41-15 47-32 6-18 1-40-17-56-8-6-16-12-23-19-6-8-11-16-11-28 0 0 0 0 0 0 0-24 0-29 0-29 0-2 2-4 4-4 2 0 4 1 4 4 0 0 0 4 0 29 0 0 0 0 0 0 0 9 3 16 9 22 6 7 14 12 22 19 21 18 26 43 19 64-7 21-26 37-54 37z m0-208c-4 0-8-4-8-8 0-4 4-8 8-8 4 0 8 4 8 8 0 4-4 8-8 8z"/>
<glyph glyph-name="faq-settings" unicode="&#117;" d="M272 88l-31 0c-8 0-15 6-16 14l-4 27c-10 3-19 7-28 11l-23-16c-7-4-16-4-21 2l-22 22c-5 5-6 14-2 20l17 23c-5 9-9 18-12 28l-28 5c-8 1-14 8-14 16l0 30c0 8 6 15 14 16l27 4c3 10 7 20 12 29l-16 23c-5 7-5 16 1 21l22 22c5 5 14 6 21 2l22-17c9 5 19 9 29 13l4 27c2 8 8 14 16 14l31 0c8 0 14-6 15-14l5-27c10-3 20-7 29-12l23 16c7 5 16 4 21-2l22-21c5-6 6-15 1-21l-16-23c5-9 9-18 12-28l27-5c8-1 14-8 14-15l0-31c0-8-6-15-14-16l-27-4c-3-10-7-20-12-29l16-23c5-6 5-15-1-21l-22-21c-5-6-14-6-21-2l-22 16c-9-5-19-9-29-11l-4-28c-2-9-9-14-16-14z m-80 62c1 0 2 0 2 0 10-6 21-10 32-13 1 0 3-2 3-3l5-31c0-3 3-6 7-6l31 0c3 0 6 3 7 6l5 31c0 1 2 3 3 3 11 3 22 7 31 13 2 1 4 1 5 0l26-18c2-2 6-2 9 1l21 22c3 2 3 6 1 9l-18 25c-1 1-1 3 0 5 6 10 11 21 13 32 1 1 2 3 4 3l30 5c4 0 6 3 6 7l0 31c0 3-3 6-6 7l-30 5c-2 0-3 2-4 3-2 11-7 22-13 31-1 2-1 4 0 5l18 26c3 2 2 6-1 9l-21 21c-3 3-7 3-9 1l-26-18c-1-1-3-1-5 0-9 6-21 11-32 14-2 0-3 2-3 3l-5 31c-1 3-4 5-7 5l-31 0c-4 0-6-2-7-5l-6-31c0-2-1-3-3-4-11-3-21-7-31-13-2-1-4-1-5 0l-25 17c-3 3-7 2-9-1l-22-21c-2-2-3-7-1-9l18-25c1-2 1-4 0-5-6-10-10-21-13-32 0-2-2-3-3-3l-31-5c-3-1-5-4-5-7l0-31c0-4 2-6 5-7l31-6c2 0 3-1 4-3 3-11 7-21 13-31 1-2 1-4 0-5l-17-25c-3-3-2-7 1-9l21-22c2-2 7-2 9-1l25 18c1 1 2 1 3 1z m64 36c-38 0-69 31-69 70 0 38 31 69 69 69 39 0 70-31 70-69 0-39-31-70-70-70z m0 130c-33 0-60-27-60-60 0-34 27-61 60-61 34 0 61 27 61 61 0 33-27 60-61 60z"/>
<glyph glyph-name="graph-1" unicode="&#118;" d="M47 64c-1 0-2 1-3 1-2 2-3 6-1 8l133 177c1 1 3 2 5 2 1 0 3 0 4-1l72-80 136 205-45-20c-3-1-6 0-7 2-1 3 0 6 2 8l63 28c2 2 5 1 7-1 1-2 1-5 0-7l-151-226c-1-2-3-3-4-3-2 0-4 1-5 2l-72 80-129-173c-1-1-3-2-5-2z m0 5c-3 0-5 3-5 6l0 368c0 3 2 5 5 5 4 0 6-2 6-5l0-368c0-3-2-6-6-6z m418-5l-418 0c-3 0-5 2-5 5 0 4 2 6 5 6l418 0c3 0 5-2 5-6 0-3-3-5-5-5z m-57 247c-3 0-6 3-6 6l0 67c0 3 3 6 6 6 3 0 5-3 5-6l0-67c0-3-2-6-5-6z"/>
<glyph glyph-name="legislation" unicode="&#69;" d="M161 512l-84 0c-14 0-26-12-26-26l0-461c0-14 11-25 26-25l396 0 0 512z m-92-26c0 5 3 9 8 9l15 0 0-417-15 0c-3 0-5-1-8-1z m387-434l0-35-379 0c-5 0-9 4-9 8l0 27c0 5 4 9 9 9l379 0z m0 434l0-408-348 0 0 417 348 0z m-101-149l-151 0 0 17 151 0z m0-43l-151 0 0 18 151 0z"/>
<glyph glyph-name="live-chat-minimize" unicode="&#71;" d="M223 142c4 0 7 3 7 7l0 74c0 4-3 7-7 7l-74 0c-4 0-7-3-7-7 0-3 3-6 7-6l58 0-85-86c-3-2-3-7 0-9 1-1 3-2 4-2 2 0 4 1 5 2l86 86 0-59c0-4 3-7 6-7z m65 227c-3 0-6-3-6-6l0-75c0-3 3-6 6-6l75 0c3 0 6 3 6 6 0 4-3 7-6 7l-59 0 86 86c3 2 3 7 0 9-2 3-7 3-9 0l-86-86 0 59c0 3-3 6-7 6z"/>
<glyph glyph-name="magnifying-glass" unicode="&#72;" d="M374 147l-72 72c15 17 24 39 24 63 0 25-11 49-28 66-18 18-42 28-67 28-25 0-49-10-67-28-37-37-37-97 0-134 18-18 42-28 67-28 23 0 45 9 62 24l72-72c2-1 3-2 5-2 1 0 3 1 4 2 3 3 3 7 0 9z m-202 77c-32 32-32 84 0 116 16 16 36 24 58 24 22 0 43-9 58-24 16-16 24-36 24-58 0-22-9-43-24-58-15-16-36-24-58-24-22 0-42 8-58 24z"/>
<glyph glyph-name="menu-abp-reports" unicode="&#73;" d="M117 108l290 0 0-12-302 0 0 320 12 0z m32 60l34 76 50-21 53 86 58-31 57 73-9 8-51-66-59 32-54-88-51 22-38-86z"/>
<glyph glyph-name="menu-dashboard" unicode="&#74;" d="M256 339c-6 0-12-6-12-12 0-7 6-12 12-12 6 0 12 5 12 12 0 6-6 12-12 12z m-84-20c-3-1-5-4-6-7-1-3-1-6 1-9 2-4 6-7 10-7 2 0 4 1 5 2 3 1 5 3 6 6 1 4 1 7 0 10-3 5-10 8-16 5z m-89-126c-7 2-13-3-14-9-1-6 3-12 9-14 1 0 1 0 2 0 6 0 10 4 12 9 0 3 0 7-2 9-2 3-4 5-7 5z m22 71c-4-5-3-13 2-17 2-2 5-2 7-2 4 0 7 1 10 4 4 5 3 13-2 17-5 4-13 3-17-2z m285 2c-5-4-6-12-2-17 3-3 6-4 10-4 2 0 5 0 7 2 5 4 6 12 2 17-4 5-12 6-17 2z m-50 53c-6 3-13 0-16-5-1-3-1-7 0-10 1-3 3-5 6-6 1-1 3-2 5-2 4 0 8 3 10 7 3 6 1 13-5 16z m92-149c1 0 1 0 2 0 6 1 10 8 9 14-1 6-8 11-14 9-3 0-5-2-7-5-2-2-2-6-2-9 1-5 6-9 12-9z m-176 206c-126 0-228-104-228-232 0-5 3-8 8-8l440 0c5 0 8 3 8 8 0 128-102 232-228 232z m-30-225c3 14 15 24 30 24 14 0 27-10 30-24z m76 0c-2 9-6 17-11 24l63 79c3 3 3 8-1 11-3 3-8 2-11-1l-63-79c-7 4-15 6-23 6-23 0-42-17-46-40l-167 0c5 116 98 210 213 210 115 0 208-94 212-210z"/>
<glyph glyph-name="menu-legislation" unicode="&#75;" d="M193 416l-53 0c-8 0-16-7-16-16l0-288c0-9 7-16 16-16l248 0 0 320z m-58-16c0 3 2 5 6 5l8 0 0-260-8 0c-2 0-4-1-6-1z m242-271l0-22-237 0c-3 0-5 2-5 5l0 17c0 3 2 5 5 5l237 0z m0 271l0-255-217 0 0 260 217 0z m-63-93l-94 0 0 11 94 0z m0-27l-94 0 0 11 94 0z"/>
<glyph glyph-name="menu-plants" unicode="&#76;" d="M229 96l-130 0 0 320 130-60z m-116 13l103 0 0 238-103 48z m300-13l-197 0 0 198 197 0z m-184 13l170 0 0 172-170 0z m-38-13l-54 0 0 81 54 0z m-40 13l26 0 0 54-26 0z m212 145l13 0 0-34-13 0z m-37 0l13 0 0-34-13 0z m-37 0l14 0 0-34-14 0z m-36 0l13 0 0-34-13 0z m110-84l13 0 0-34-13 0z m-37 0l13 0 0-34-13 0z m-37 0l14 0 0-34-14 0z m-36 0l13 0 0-34-13 0z"/>
<glyph glyph-name="menu-producers" unicode="&#77;" d="M295 240c-2 0-3-1-4-2 0 0-14-13-35-13-22 0-35 12-35 13-2 1-3 2-5 2-26 0-47-9-62-26-31-35-23-94-22-97 1-3 3-5 6-5l236 0c3 0 5 2 6 5 1 3 9 62-22 97-16 17-36 26-63 26z m-14-22l-25-51-24 51c6-3 14-5 24-5 10 0 18 2 25 5z m87-94l-224 0c-2 15-3 57 20 82 12 13 28 20 49 21l38-77c2-4 9-4 11 0l37 77c21-1 37-8 49-21 22-25 22-67 20-82z m-112 130c37 0 67 29 67 66 0 37-30 67-67 67-38 0-68-30-68-67 0-37 31-66 68-66z m0 121c30 0 55-24 55-55 0-30-25-54-55-54-31 0-56 24-56 54 0 31 26 55 56 55z m211-98c-10 12-26 18-45 18-1 0-1 0-2-1 0 0 0 0-1 0 0 0-1 0-2-1 0-1-9-8-23-8-15 0-23 7-23 8-1 1-2 1-2 1l0 0c-1 0-1 1-2 1-30 0-49-15-58-41-1-3 1-7 4-8 4-2 7 0 8 4 7 21 21 32 43 33l26-54c2-4 9-4 11 0l26 54c13-1 24-6 32-14 14-17 14-44 14-55l-88 0c-4 0-6-2-6-6 0-4 2-6 6-6l93 0c3 0 5 2 6 5 0 2 6 44-17 70z m-72-31l-14 29c4-1 8-2 14-2 5 0 10 1 14 2z m0 56c27 0 50 21 50 49 0 27-23 49-50 49-28 0-50-22-50-50 0-27 22-48 50-48z m0 85c20 0 37-16 37-37 0-20-16-37-37-37-21 0-38 17-38 37 0 20 17 37 38 37z m-262-180c0 4-2 6-6 6l-87 0c-1 12-1 39 14 55 7 9 18 14 32 14l26-53c2-5 9-5 11 0l26 53c21-1 35-12 42-33 1-3 4-5 8-4 3 1 5 4 4 8-8 27-28 41-57 41-1 0-2 0-2 0l-1 0c-1 0-1-1-1-2 0 0-9-8-24-8-14 0-22 8-23 8-1 1-1 1-1 2l-1 0c0 0-1 0-2 0-19 0-34-6-45-18-24-25-18-67-18-69 1-3 3-6 6-6l93 0c3 0 6 3 6 6z m-2 68l-14-29-14 29c4-1 9-2 14-2 6-1 10 1 14 2z m-14 27c27 0 50 21 50 49 0 27-22 49-50 49-27 0-50-22-50-49 0-28 23-49 50-49z m0 85c21 0 38-16 38-37 0-20-17-37-38-37-21 0-37 17-37 37 0 21 17 37 37 37z"/>
<glyph glyph-name="notification" unicode="&#78;" d="M433 105c-13 0-22 2-22 36l0 137c0 80-56 151-127 162-9 3-18 3-27 3-9 0-18 0-27-3-73-11-127-82-127-162l0-137c0-34-9-36-22-36l-40 0 0-30 430 0 0 30z m-305 0c2 9 4 20 4 36l0 137c0 67 45 124 103 133 7 2 13 2 22 2 7 0 14 0 22-2 58-9 103-66 103-133l0-137c0-13 2-27 7-36z m171-73l-84 0c-9 0-16-7-16-16 0-9 7-16 16-16l84 0c9 0 16 7 16 16 0 9-7 16-16 16z m-43 449c8 0 15 7 15 16 0 8-7 15-15 15-8 0-15-7-15-15 0-9 7-16 15-16z"/>
<glyph glyph-name="pdf-file" unicode="&#79;" d="M312 450c-4 4-9 6-15 6l-182 0c-12 0-21-10-21-22l0-356c0-12 9-22 21-22l282 0c12 0 21 10 21 22l0 260c0 6-2 11-6 15z m-1-7l94-90-94 0z m102-105l0-260c0-9-7-16-16-16l-282 0c-9 0-16 7-16 16l0 356c0 9 7 16 16 16l182 0c1 0 3 0 3 0 0 0 0 0 0 0l6-1 0-6 0-84c0-6 5-12 12-12l93 0 1-5c0-1 1-2 1-4z m-224-75l-28 0 0-59 7 0 0 19 21 0c13 0 21 7 21 20 0 9-5 20-21 20z m0-35l-21 0 0 29 21 0c7 0 15-5 15-14 0-9-7-15-15-15z m67 35l-23 0 0-59 23 0c7 0 30 2 30 30 0 7-2 29-30 29z m0-54l-16 0 0 49 16 0c15 0 23-9 23-24 0-15-8-25-23-25z m61 19l32 0 0 5-32 0 0 24 34 0 0 6-41 0 0-59 7 0z"/>
<glyph glyph-name="plant" unicode="&#80;" d="M208 0l-208 0 0 512 208-96z m-187 22l166 0 0 380-166 77z m481-22l-315 0 0 317 315 0 0-317z m-294 22l272 0 0 274-272 0z m-62-22l-85 0 0 129 85 0z m-64 22l43 0 0 86-43 0z m340 231l21 0 0-54-21 0z m-59 0l21 0 0-54-21 0z m-59 0l22 0 0-54-22 0z m-58 0l21 0 0-54-21 0z m176-135l21 0 0-53-21 0z m-59 0l21 0 0-53-21 0z m-59 0l22 0 0-53-22 0z m-58 0l21 0 0-53-21 0z"/>
<glyph glyph-name="plants-bar-chart" unicode="&#81;" d="M502 126l-62 0 0 165c0 3-2 6-7 6l-111 0 0 95c0 4-3 7-7 7l-118 0c-3 0-7-2-7-7l0-105-40 0c-4 0-7-2-7-6l0-69-48 0c-4 0-7-3-7-7l0-79-76 0c-4 0-7-2-7-6 0-5 3-7 7-7l488 0c4 0 7 2 7 7 0 4-2 6-5 6z m-399 73l42 0 0-73-42 0z m54 6l0 69 35 0 0-148-35 0z m48 76l0 105 105 0 0-260-105 0z m117-155l0 158 106 0 0-158z"/>
<glyph glyph-name="plants-check-mark" unicode="&#82;" d="M434 400l-241-241-115 116-24-24 116-115 0-1 23-23 0 0 24 24 241 241z"/>
<glyph glyph-name="plants-mex" unicode="&#83;" d="M253 400l-209-63 2-6 47 14 0-230c0-2 1-3 3-3l316 0c2 0 3 1 3 3l0 231 51-15 2 6-209 63z m115-282l-224 0 0 118 224 0z m-80 176l-63 0 0 46 63 0z m35-6l0-46-63 0 0 46z m-69 0l0-46-63 0 0 46z m155-170l-35 0 0 121c0 2-1 3-3 3l-42 0 0 49c0 2-1 3-3 3l-32 0 0 49c0 1-1 3-3 3l-69 0c-2 0-3-2-3-3l0-49-31 0c-2 0-3-1-3-3l0-49-44 0c-2 0-3-1-3-3l0-121-40 0 0 229 156 48 3 0 1-1 151-46z"/>
<glyph glyph-name="plants-processing-facility" unicode="&#84;" d="M229 96l-133 0 0 320 133-60z m-119 13l105 0 0 238-105 48z m306-13l-201 0 0 198 201 0z m-187 13l173 0 0 172-173 0z m-40-13l-54 0 0 81 54 0z m-41 13l28 0 0 54-28 0z m217 145l14 0 0-34-14 0z m-38 0l14 0 0-34-14 0z m-37 0l14 0 0-34-14 0z m-37 0l13 0 0-34-13 0z m112-84l14 0 0-34-14 0z m-38 0l14 0 0-34-14 0z m-37 0l14 0 0-34-14 0z m-37 0l13 0 0-34-13 0z"/>
<glyph glyph-name="print" unicode="&#85;" d="M173 161l166 0c2 0 4 2 4 4 0 1-2 3-4 3l-166 0c-2 0-4-2-4-3 0-2 2-4 4-4z m0-33l166 0c2 0 4 2 4 3 0 2-2 4-4 4l-166 0c-2 0-4-2-4-4 0-2 2-3 4-3z m233 186l-37 0 0 99c0 2-2 3-4 3l-218 0c-2 0-4-1-4-3l0-99-37 0c-2 0-4-2-4-3l0-141c0-2 2-3 4-3l37 0 0-68c0-2 2-3 4-3l218 0c2 0 4 1 4 3l0 68 37 0c2 0 4 1 4 3l0 141c0 1-2 3-4 3z m-256 95l212 0 0-95-212 0z m212-235l0-71-212 0 0 95 212 0z m41 0l-34 0 0 27c0 2-2 4-4 4l-218 0c-2 0-4-2-4-4l0-27-34 0 0 133 294 0z m-48 110l14 0 0-13-14 0z m-27 0l13 0 0-13-13 0z m-188 0l14 0 0-13-14 0z"/>
<glyph glyph-name="producers" unicode="&#86;" d="M295 238c-2 0-3-1-4-2 0 0-15-14-39-14-24 0-39 13-39 14-1 1-2 2-4 2-30 0-53-9-69-28-34-39-25-104-25-107 1-3 4-6 7-6l260 0c4 0 6 3 7 6 1 3 10 68-24 107-17 19-40 28-70 28z m-15-24l-27-56-27 56c7-3 16-6 27-6 11 0 19 3 27 6z m96-103l-248 0c-1 16-2 62 23 89 13 15 31 22 54 24l42-85c2-4 10-4 12 0l41 85c23-1 41-9 54-24 24-27 24-73 22-89z m-124 142c41 0 75 33 75 74 0 41-34 74-75 74-41 0-75-33-75-74 0-41 34-74 75-74z m0 134c34 0 61-26 61-60 0-33-27-60-61-60-34 0-61 27-61 60 0 34 28 60 61 60z m234-108c-12 13-29 20-51 20 0 0-1 0-2-1 0 0 0 0 0 0-1 0-2 0-2-1-1-1-11-9-26-9-17 0-26 8-26 9-1 1-1 1-1 1l-1 0c-1 0-1 1-2 1-33 0-54-16-64-46-1-3 1-7 5-8 3-2 7 0 9 4 7 23 23 35 46 37l29-59c2-5 10-5 12 0l29 59c15-1 27-7 35-16 16-18 16-48 16-60l-97 0c-5 0-7-3-7-7 0-4 2-7 7-7l102 0c3 0 6 3 7 6 0 2 7 49-18 77z m-81-34l-15 32c5-2 9-2 15-2 7 0 11 0 16 2z m0 61c30 0 55 24 55 55 0 30-24 54-55 54-30 0-55-25-55-55 0-30 25-54 55-54z m0 95c23 0 42-18 42-41 0-23-18-41-42-41-23 0-41 19-41 41 0 22 18 41 41 41z m-288-199c0 4-3 7-7 7l-96 0c-1 13-1 42 15 60 8 10 21 15 36 16l28-59c2-5 10-5 12 0l29 59c24-1 39-14 47-36 1-4 4-6 9-5 3 1 5 5 4 9-9 30-31 45-64 45 0 0-1 0-2 0l0 0c-1 0-2-1-2-2 0 0-10-9-25-9-16 0-26 9-26 9-1 1-2 1-2 2l0 0c-1 0-2 0-2 0-21 0-38-6-51-20-26-27-19-74-19-76 0-4 3-6 7-6l102 0c3 0 7 3 7 6z m-2 75l-16-32-15 32c4-2 9-2 15-2 6-1 11 0 16 2z m-16 29c30 0 55 24 55 55 0 30-24 54-55 54-30 0-55-24-55-54 0-31 25-55 55-55z m0 95c23 0 42-18 42-41 0-23-19-41-42-41-23 0-41 18-41 41 0 23 19 41 41 41z"/>
<glyph glyph-name="regions-bar-chart" unicode="&#52;" d="M72 440l12 0 0-356 356 0 0-12-368 0z m46-230l23 0 0-115-23 0z m69 34l23 0 0-149-23 0z m69 46l23 0 0-195-23 0z m69 70l23 0 0-266-23 0z m69-127l23 0 0-138-23 0z"/>
<glyph glyph-name="reports" unicode="&#53;" d="M31 19l465 0 0-19-483 0 0 512 18 0z m53 96l53 122 80-35 85 139 93-51 91 118-14 12-82-105-94 51-86-140-83 35-60-138z"/>
<glyph glyph-name="routes-bar-chart-1" unicode="&#54;" d="M442 64l-372 0c-3 0-6 3-6 6l0 372c0 3 3 6 6 6 4 0 6-3 6-6l0-366 366 0c3 0 6-2 6-6 0-3-3-6-6-6z m-152 234l0-222-66 0 0 222 66 0m0 8l-66 0c-4 0-8-3-8-8l0-222c0-4 4-8 8-8l66 0c4 0 8 4 8 8l0 222c0 5-4 8-8 8z m-99 78l0-308-69 0 0 308 69 0m0 9l-69 0c-5 0-9-4-9-9l0-308c0-4 4-8 9-8l69 0c5 0 9 4 9 8l0 308c0 5-4 9-9 9z m202-177l0-140-70 0 0 140 70 0m0 8l-70 0c-5 0-8-3-8-8l0-140c0-4 3-8 8-8l70 0c4 0 8 4 8 8l0 140c0 4-4 8-8 8z"/>
<glyph glyph-name="routes-bar-chart-2" unicode="&#55;" d="M444 73l-44 0 0 143c0 3-3 6-6 6l-71 0c-3 0-6-3-6-6l0-143-20 0 0 225c0 4-3 7-7 7l-66 0c-4 0-7-3-7-7l0-225-20 0 0 313c0 3-3 6-6 6l-71 0c-3 0-6-3-6-6l0-313-41 0 0 371c0 2-2 4-5 4-2 0-4-2-4-4l0-376c0-2 2-4 4-4l376 0c2 0 4 2 4 4 0 3-2 5-4 5z m-252 0l-73 0 0 314 73 0 0-314z m100 0l-70 0 0 227 70 0z m104 0l-74 0 0 144 74 0z"/>
<glyph glyph-name="routes-infographic-arrow" unicode="&#56;" d="M484 246l28 9-28 10 0-8-484 0 0-4 484 0z"/>
<glyph glyph-name="routes-infographic-factory" unicode="&#33;" d="M438 240l-26 256-68 0-26-255-60-40 0 84-126-85 0 84-132-87 0-181 510 0 0 269-71-47z m-88 250l57 0 26-256-49-33 0 84-59-39z m154-468l-498 0 0 172 120 79 0-84 126 84 0-84 126 84 0-84 126 84 0-251z m-428 93l-35 0 0-52 35 0z m-5-49l-26 0 0 45 26 0z m67 49l-34 0 0-52 34 0z m-4-49l-26 0 0 45 26 0z m67 49l-35 0 0-52 35 0z m-4-49l-26 0 0 45 26 0z m67 49l-35 0 0-52 35 0z m-5-49l-26 0 0 45 26 0z"/>
<glyph glyph-name="routes-infographic-large-arrow" unicode="&#34;" d="M510 281l-2-6 2 0 0-44-509 0 0 51-1 0 0-52 510 0 0 45 2 0z"/>
<glyph glyph-name="routes-infographic-warehouse" unicode="&#35;" d="M258 390l256-174 0 39-257 173-257-173 0-39 257 174z m-255-136l0 0 254 170 254-170 0-33-254 173-254-173z m12-169l144 0 0 130 195 0 0-130 145 0 0 134-242 164-242-164z m3 133l239 161 239-161 0-130-139 0 0 130-200 0 0-130-139 0z m153-18l172 0 0-5-172 0z m0-19l172 0 0-5-172 0z m0-18l172 0 0-5-172 0z m0-19l172 0 0-5-172 0z m0-18l172 0 0-5-172 0z m0-18l172 0 0-5-172 0z m0-19l172 0 0-5-172 0z"/>
<glyph glyph-name="routes-infographic-building" unicode="&#57;" d="M501 9l-8 0 0 499c0 2-2 4-4 4l-164 0c-2 0-3-2-3-4l0-134-287 0c-1 0-3-1-3-3l-24-63c-1-1-1-2 0-3 1-1 2-2 3-2l8 0 0-294-8 0c-2 0-4-2-4-4 0-2 2-3 4-3l490 0c3 0 4 1 4 3 0 2-1 4-4 4z m-381 0l-93 0 0 93 93 0z m0 101l-93 0 0 94 93 0z m0 101l-93 0 0 92 8 0 0 0c0 0 1 0 1 0 0 0 0 0 0 0l1 1 83 0z m101-202l-94 0 0 93 94 0z m0 101l-94 0 0 94 94 0z m0 101l-94 0 0 93 94 0z m101-202l-93 0 0 93 93 0z m0 101l-93 0 0 94 93 0z m0 101l-93 0 0 93 93 0z m0 100l-96 0 0 0c-1 0-1 0-1 0 0 0 0 0 0 0 0 0-1 0-1 0l-1 0-98 0-1 0c0 0 0 0 0 0 0 0-1 0-1 0 0 0 0 0 0 0l-1 0-105 0 21 55 284 0z m163-302l-156 0 0 496 156 0z m-96 440c-2 0-3-2-3-4l0-24c0-3 1-4 3-4 3 0 4 1 4 4l0 24c0 2-1 4-4 4z m38 0c-2 0-4-2-4-4l0-24c0-3 2-4 4-4 2 0 3 1 3 4l0 24c0 2-1 4-3 4z m-38-121c3 0 4 1 4 3l0 25c0 2-1 4-4 4-2 0-3-2-3-4l0-25c0-2 1-3 3-3z m38 32c-2 0-4-2-4-4l0-25c0-2 2-3 4-3 2 0 3 1 3 3l0 25c0 2-1 4-3 4z m-38-120c3 0 4 2 4 4l0 24c0 3-1 4-4 4-2 0-3-1-3-4l0-24c0-2 1-4 3-4z m38 32c-2 0-4-1-4-4l0-24c0-2 2-4 4-4 2 0 3 2 3 4l0 24c0 3-1 4-3 4z m-38-121c3 0 4 1 4 4l0 24c0 2-1 4-4 4-2 0-3-2-3-4l0-24c0-3 1-4 3-4z m38 32c-2 0-4-2-4-4l0-24c0-3 2-4 4-4 2 0 3 2 3 4l0 24c0 2-1 4-3 4z m-38-120c3 0 4 2 4 4l0 25c0 2-1 3-4 3-2 0-3-1-3-3l0-25c0-2 1-4 3-4z m38 0c2 0 3 2 3 4l0 25c0 2-1 3-3 3-2 0-4-1-4-3l0-25c0-2 2-4 4-4z"/>
<glyph glyph-name="live-chat-menu" unicode="&#70;" d="M104 384l304 0 0-23-304 0z m0-116l304 0 0-24-304 0z m0-117l304 0 0-23-304 0z"/>
<glyph glyph-name="abp-reports-filters" unicode="&#97;" d="M403 224c-3 2-6 2-9 0l-59-60 0 198c0 3-3 6-6 6-3 0-6-3-6-6l0-198-59 60c-3 2-6 2-9 0-2-3-2-6 0-9l70-69c1-1 2-2 4-2 2 0 3 1 4 2l70 69c2 3 2 6 0 9z m-290 132l165 0c4 0 6 3 6 6 0 3-2 6-6 6l-165 0c-3 0-6-3-6-6 0-3 3-6 6-6z m0-70l139 0c4 0 6 3 6 6 0 3-2 6-6 6l-139 0c-3 0-6-3-6-6 0-3 3-6 6-6z m112-58l-112 0c-3 0-6-3-6-6 0-3 3-6 6-6l112 0c4 0 6 3 6 6 0 3-2 6-6 6z m-26-70l-86 0c-3 0-6-3-6-6 0-3 3-6 6-6l86 0c3 0 6 3 6 6 0 3-3 6-6 6z"/>
<glyph glyph-name="sorting-mobile" unicode="&#42;" d="M509 196c-4 4-11 4-15 0l-102-102 0 339c0 6-4 11-10 11-6 0-10-5-10-11l0-339-103 102c-4 4-10 4-14 0-4-4-4-10 0-14l120-120c2-2 4-3 7-3 2 0 5 1 7 3l120 120c4 4 4 10 0 14z m-499 228l284 0c6 0 11 5 11 10 0 6-5 11-11 11l-284 0c-5 0-10-5-10-11 0-5 5-10 10-10z m0-121l240 0c6 0 10 5 10 11 0 5-4 10-10 10l-240 0c-5 0-10-5-10-10 0-6 5-11 10-11z m193-100l-193 0c-5 0-10-4-10-10 0-6 5-10 10-10l193 0c6 0 10 4 10 10 0 6-4 10-10 10z m-45-120l-148 0c-5 0-10-5-10-11 0-5 5-10 10-10l148 0c5 0 10 5 10 10 0 6-5 11-10 11z"/>
<glyph glyph-name="filtering-funnel-mobile" unicode="&#44;" d="M194 2c0-2 1-4 3-5 1 0 2 0 2 0 2 0 3 0 4 1l91 91c1 1 2 2 2 4l0 148 215 262c1 2 1 4 0 6-1 2-2 3-5 3l-500 0c-3 0-4-1-5-3-2-2-1-4 0-6l193-259 0-242z m-177 499l477 0-209-255c0-1-1-2-1-3l0-147-79-79 0 229c0 1-1 2-1 3z"/>
<glyph glyph-name="arrow-down-manage-user" unicode="&#45;" d="M0 347l37 37 219-219 219 219 37-37-256-256z"/>
<glyph glyph-name="arrow-mobile" unicode="&#46;" d="M14 77l512 175-512 175z"/>
<glyph glyph-name="checkmark-mobile" unicode="&#47;" d="M163 140l-122 122-41-41 163-163 349 349-41 41z"/>
<glyph glyph-name="camera-2" unicode="&#58;" d="M467 39l-422 0c-25 0-45 20-45 45l0 271c0 25 20 46 45 46l91 0c2 0 7 2 8 5l16 33c7 12 22 22 36 22l120 0c14 0 29-10 35-22l17-33c1-3 6-5 8-5l91 0c25 0 45-21 45-46l0-271c0-25-20-45-45-45z m-422 331c-8 0-15-6-15-15l0-271c0-8 7-15 15-15l422 0c8 0 15 7 15 15l0 271c0 9-7 15-15 15l-90 0c-14 0-30 10-36 22l-16 34c-2 2-6 5-9 5l-120 0c-3 0-7-3-9-5l-16-34c-6-12-22-22-35-22z m211-271c-75 0-136 61-136 136 0 75 61 135 136 135 75 0 136-60 136-135 0-75-61-136-136-136z m0 241c-58 0-105-47-105-105 0-58 47-105 105-105 58 0 105 47 105 105 0 58-47 105-105 105z m166 0c0-8-7-15-15-15-9 0-15 7-15 15 0 9 6 15 15 15 8 0 15-6 15-15z m-362 91l61 0 0-15-61 0z m196-136l0 15c-42 0-75-33-75-75l15 0c0 33 27 60 60 60z"/>
<glyph glyph-name="camera-1" unicode="&#59;" d="M256 355c-71 0-128-57-128-128 0-71 57-128 128-128 71 0 128 57 128 128 0 71-57 128-128 128z m73-191c-35-40-95-45-135-10-41 34-45 95-11 135 35 41 95 45 135 11 41-35 45-95 11-136z m-73 127c-35 0-64-29-64-64 0-5 4-8 8-8 4 0 8 3 8 8 0 26 22 48 48 48 4 0 8 3 8 8 0 4-4 8-8 8z m216 79l-69 12-22 55c-8 18-25 30-45 30l-160 0c-20 0-37-12-45-30l-22-55-69-12c-23-4-40-24-40-47l0-240c0-27 22-48 48-48l416 0c26 0 48 21 48 48l0 240c0 23-17 43-40 47z m8-287c0-9-7-16-16-16l-416 0c-9 0-16 7-16 16l0 240c0 8 6 14 13 16l87 14 29 72c3 6 8 10 15 10l160 0c7 0 12-4 15-10l28-72 88-14c7-2 13-8 13-16l0-240z"/>
<glyph glyph-name="edit-profile" unicode="&#60;" d="M60 105c-9 0-18-4-24-10-6-6-10-15-10-24 0-9 4-18 10-24 6-6 15-10 24-10 9 0 17 4 24 10 13 13 13 35 0 48-7 6-15 10-24 10z m20-54c-5-5-12-8-20-8-7 0-14 3-19 8-5 5-8 12-8 19 0 8 3 15 8 20 5 5 12 8 19 8 8 0 15-3 20-8 10-11 10-28 0-39z m270 267c1-3 3-5 7-7 1-1 2-1 4-1 5 0 9 3 12 7l17 42c1 3 1 6 0 9-2 3-4 5-7 7-2 0-3 1-5 1-5 0-9-3-11-8l-17-41c-1-3-1-6 0-9z m6 7l17 41c1 2 3 4 6 4 0 0 2 0 2-1 2-1 3-2 3-3 1-2 1-3 0-5l-17-42c-1-2-4-4-8-3-1 1-2 2-3 3-1 3-1 4 0 6z m-32 2c1-2 3-5 6-6 2-1 3-2 5-2 5 0 9 3 11 8l17 41c3 7 0 13-6 16-2 1-3 1-5 1-5 0-9-2-11-7l-17-41c-2-3-2-7 0-10z m6 7l17 42c1 2 3 3 6 3 0 0 1 0 2 0 3-2 4-5 3-8l-17-42c-1-3-4-4-8-3-1 0-3 1-3 3-1 2-1 4 0 5z m-26-4c1 0 3-1 4-1 5 0 9 3 12 8l17 41c1 3 1 6 0 9-1 3-4 5-7 7-2 1-3 1-5 1-5 0-9-3-11-7l-17-42c-1-3-1-6 0-9 1-3 4-6 7-7z m-1 13l17 42c1 2 2 3 5 3 1 0 2 0 3 0 1-1 2-2 3-4 1-1 1-3 0-4l-17-42c-1-3-5-4-8-3-2 0-3 2-3 3-1 3-1 4 0 5z m188-236l-114 114c0 1 0 1-1 1l-24 8-28 25c14 5 30 7 51 9l6 0c39 4 89 19 116 69 41 79-14 132-15 133 0 0-1 1-3 0-1 0-1-1-2-1l-31-77-23-8-72 28-11 4 44 94c0 1 0 2 0 3-1 1-2 2-2 2-74 4-114-55-121-68l-7 3c-1 1-1 0-3 0l-21-11c0-1-1-1-1-2l-5-12c-2-4 1-9 5-11l33-13-1-7c-6-34-14-61-33-84-1 2-3 4-5 6-3 3-6 6-7 6-6 6-14 14-22 22-5 5-9 10-14 15-6 5-11 11-16 17l-1 1c-5 6-11 11-16 17-3 3-5 7-7 10-1 1-2 3-2 5-1 2-3 5-5 7-2 4-5 7-8 11-3 3-6 7-8 10-5 6-11 12-17 18-5 6-10 11-16 17-6 6-11 10-15 15-2 1-4 3-5 4l-4 4c-1 1-3 3-4 4l-10 9c-3 2-6 4-7 5l-3 2c-1 1-2 1-4 0l-28-28c-1-1-1-3 0-4l2-3c1-1 3-4 5-6l10-11c1-1 2-2 3-4l4-4c2-1 3-3 4-5 4-4 10-9 15-14 6-6 12-12 17-17 6-6 12-11 18-17 4-3 7-6 10-8 4-3 8-6 11-8 2-2 5-3 7-5 2 0 3-1 5-2 3-2 7-4 10-7 6-5 12-10 18-15l1-1c6-6 11-11 17-16 5-5 10-10 15-14 8-8 16-16 21-22 1-1 3-4 6-7 2-2 5-4 6-6l-191-177c-12-11-18-25-18-41 0-16 6-30 17-41 11-11 25-17 40-17 16 0 31 6 42 18l154 165 30-34 8-24c0 0 0-1 0-1l114-114c9-8 18-11 25-11 6 0 11 2 17 4 4 2 8 5 11 7l24 25 8 8c4 3 6 7 8 11 9 17 3 33-7 42z m-115 397l-42-90-68 27c8 13 45 64 110 63z m-170-208c-3 2-5 5-6 6-5 6-13 14-21 22-5 5-10 10-15 15-5 5-11 10-17 16l-1 1c-6 5-12 10-18 16-3 3-7 5-11 7-2 1-3 2-4 3-3 1-5 3-7 4-4 2-7 5-10 7-4 3-7 6-10 8-6 5-12 11-18 17-5 5-11 10-17 16-5 6-10 11-14 15-2 2-3 4-5 5l-3 4c-1 2-3 3-4 5l-9 10c-2 3-5 5-6 7l25 24c1-1 4-3 7-5l10-9c1-2 3-3 4-4l4-4c1-2 3-3 5-4 4-4 9-9 15-15 5-5 11-11 16-16 6-6 11-13 17-18 2-4 5-7 8-10 2-3 5-7 7-10 2-3 3-5 4-7 1-2 2-3 3-5 2-4 5-7 8-11 5-6 11-12 16-18l1-1c5-5 10-11 16-17 5-5 10-10 15-15 8-8 16-16 22-21 0-1 4-4 7-7 2-2 4-4 5-5-2-2-4-4-6-6l-6-6c-3 1-5 3-7 6z m-112-263c-9-10-22-16-37-16-13 0-26 6-36 15-10 10-15 23-15 37 0 14 6 27 16 37l200 185c3 3 6 5 8 8 22 24 30 53 37 89l1 11c0 1 0 2-1 3l-36 14c-1 0-1 1-1 2l4 11 19 10 96-36 72-29c1 0 2 0 3 0l26 9c0 1 2 1 2 2l29 73c11-12 43-57 10-122-25-47-74-61-110-65l-7 0c-39-4-65-7-95-38z m316-7l-114 113-8 24c0 0 0 0 0 1l-31 35 27 29c11 12 21 20 33 25l31-28c0 0 0-1 1-1l24-7 113-114c7-7 12-18 8-31l-119 120c-3 3-6 5-10 5-4 0-8-2-11-5-5-6-5-15 0-21l123-123-12-12-123 123c-3 3-6 5-10 5-4 0-8-2-11-5-5-6-5-15 0-21l120-120c-9-3-19-3-31 8z m44 0c-2-2-4-4-7-6l-122 123c-3 3-3 8 0 11 2 2 4 3 7 3 2 0 4-1 6-3l123-122z m33 32l-6-5-123 123c-1 1-2 4-2 6 0 2 1 4 2 6 2 2 4 2 7 2 2 0 4-1 6-2l122-122c-2-3-4-5-6-8z"/>
<glyph glyph-name="user-management-88" unicode="&#93;" d="M59 498c0 5-4 9-9 9-5 0-9-4-9-9 0-5 4-9 9-9 5 0 9 4 9 9z m-26-25l0-7c0-1 0-1 0-1 1 0 1-1 1-1l32 0c0 0 1 1 1 2l0 7c0 9-7 15-17 15-10 0-17-6-17-15z m59-22c0 5-4 9-9 9-5 0-9-4-9-9 0-5 4-9 9-9 5 0 9 4 9 9z m8-32l0 7c0 9-7 15-17 15-10 0-17-6-17-15l0-7c0-1 1-2 1-2l32 0c0 0 1 1 1 2z m-92 32c0-5 4-9 9-9 5 0 9 4 9 9 0 5-4 9-9 9-5 0-9-4-9-9z m-7-34l32 0c0 0 1 1 1 2l0 7c0 9-7 15-17 15-10 0-17-6-17-15l0-7c0-1 1-2 1-2z m49 42l0-12m0 0l-11-8m11 8l11-8"/>
<glyph glyph-name="polaroid-83" unicode="&#94;" d="M500 504l-488 0c-2 0-4-2-4-4l0-486c1-1 1-1 1-2 0 0 0-1 1-1l0-1c0 0 0 0 0-1 1 0 1 0 1 0 1-1 1-1 1-1l486 0c1 1 2 1 2 1 1 0 1 1 2 1 0 0 0 0 0 0l1 1c0 1 0 1 0 1 0 1 0 1 1 2l0 486c0 2-2 4-4 4z m-481-488l115 192 116-192z m239 0l-77 129 116 185 196-314z m238 9l-196 314c-2 2-5 2-6 0l-118-187-39 65c-1 2-5 2-6 0l-115-192 0 471 480 0 0-471z m-321 382c0 25-20 45-44 45-24 0-44-20-44-45 0-24 20-44 44-44 24 0 44 20 44 44z m-81 0c0 21 17 37 37 37 20 0 37-16 37-37 0-20-17-37-37-37-20 0-37 17-37 37z"/>
<glyph glyph-name="bell-86" unicode="&#43;" d="M317 10l-122 0c-3 0-5-2-5-5 0-3 2-5 5-5l122 0c3 0 5 2 5 5 0 3-2 5-5 5z m172 67l-50 0c0 0 0 0 0 0-15 0-26 11-27 25l0 170c0 86-70 156-156 156-86 0-156-70-156-156l0-168c0-15-12-27-27-27 0 0 0 0 0 0l-50 0c-3 0-5-3-5-5 0-3 2-5 5-5l466 0c3 0 5 2 5 5 0 2-2 5-5 5z m-379 27l0 168c0 80 66 146 146 146 80 0 146-66 146-146l0-163 0 0 0-5c0-11 4-21 11-27l-314 0c7 6 11 16 11 27z m160 394c0-7-6-13-14-13-8 0-14 6-14 13 0 8 6 14 14 14 8 0 14-6 14-14z"/>
<glyph glyph-name="bell-91" unicode="&#62;" d="M367 162c-9 0-14 1-14 22l0 86c0 50-35 94-80 101-5 2-11 2-16 2-6 0-11 0-17-2-46-7-79-51-79-101l0-86c0-21-6-22-14-22l-25 0 0-19 268 0 0 19z m-191 0c1 5 3 12 3 22l0 86c0 41 28 77 64 83 4 1 8 1 14 1 4 0 8 0 14-1 36-6 64-42 64-83l0-86c0-8 1-17 4-22z m107-46l-53 0c-5 0-10-4-10-10 0-6 5-10 10-10l53 0c6 0 10 4 10 10 0 6-4 10-10 10z m-27 281c5 0 9 4 9 9 0 6-4 10-9 10-5 0-9-4-9-10 0-5 4-9 9-9z"/>
<glyph glyph-name="bell-92" unicode="&#63;" d="M297 91l-82 0c-2 0-4-2-4-4 0-2 2-3 4-3l82 0c2 0 4 1 4 3 0 2-2 4-4 4z m116 44l-34 0c0 0 0 0 0 0-10 0-18 8-18 18l0 114c0 58-47 104-105 104-58 0-105-46-105-104l0-113c0-10-8-19-18-19 0 0 0 0 0 0l-34 0c-1 0-3-1-3-3 0-2 2-3 3-3l314 0c1 0 3 1 3 3 0 2-2 3-3 3z m-255 19l0 113c0 54 44 98 98 98 54 0 98-44 98-98l0-110 0 0 0-3c0-8 3-14 8-19l-212 0c5 5 8 11 8 19z m107 265c0-5-4-9-9-9-5 0-9 4-9 9 0 5 4 9 9 9 5 0 9-4 9-9z"/>
<glyph glyph-name="envelope-90" unicode="&#64;" d="M96 155l320 0 0 202-320 0z m8 4l95 96 40-40c5-5 11-7 17-7 6 0 12 2 17 7l40 40 95-96-304 0z m308 2l-97 96 97 97z m-7 192l-135-135c-4-4-9-6-14-6-5 0-10 2-14 6l-135 135z m-305 1l97-97-97-96z"/>
<glyph glyph-name="envelope-93" unicode="&#91;" d="M411 358l-307 0 0-204 320 0 0 204z m-13-12l-123-124c-6-6-16-6-22 0l-123 124z m-281-6l83-83-83-83z m10-174l82 82 35-35c6-5 13-8 20-8 7 0 14 3 20 8l35 35 82-82-274 0z m284 8l-83 83 83 84z"/>
<glyph glyph-name="tools-94" unicode="&#95;" d="M133 158c-5 0-11-2-15-6-4-4-6-9-6-15 0-5 2-11 6-15 4-4 10-6 15-6 6 0 11 2 15 6 8 8 8 22 0 30-4 4-9 6-15 6z m13-33c-3-3-8-5-12-5-5 0-9 2-12 5-4 3-5 7-5 12 0 4 1 9 5 12 3 3 7 5 12 5 4 0 9-2 12-5 7-6 7-17 0-24z m169 166c0-1 2-3 4-4 1 0 2-1 3-1 3 0 5 2 7 5l11 26c0 2 0 4 0 6-1 2-3 3-5 4-1 0-2 1-3 1-3 0-5-2-7-5l-10-26c-1-2-1-4 0-6z m4 5l10 26c1 1 2 2 4 2 0 0 1 0 1-1 1 0 2-1 2-2 1-1 1-1 0-3l-10-25c-1-2-3-3-5-3-1 1-2 1-2 3-1 1-1 2 0 3z m-21 2c1-2 2-4 5-5 1 0 1 0 2 0 4 0 6 1 8 4l10 26c2 4 0 8-4 10-1 0-2 1-3 1-3 0-6-2-7-5l-11-26c0-2 0-4 0-5z m4 4l11 26c1 1 2 2 3 2 1 0 1 0 2 0 2-1 3-3 2-5l-11-26c0-2-3-3-5-3-1 1-1 1-2 3-1 1-1 2 0 3z m-16-3c1 0 2 0 3 0 3 0 5 1 7 4l10 26c1 2 1 4 0 6 0 2-2 3-4 4-1 0-2 1-3 1-3 0-5-2-7-5l-10-26c-1-2-1-4 0-5 0-3 2-4 4-5z m-1 8l11 26c0 2 2 3 3 3 1 0 1 0 2-1 1 0 2-1 2-2 0-1 0-2 0-3l-11-26c0-2-3-3-5-2-1 0-2 1-2 2 0 2 0 3 0 3z m118-147l-71 71c-1 0-1 0-1 0l-15 5-18 16c10 4 19 5 32 6l4 0c24 3 56 12 72 43 26 49-8 83-9 83 0 0-1 1-1 0-1 0-1 0-2-1l-19-47-15-6-45 18-6 2 27 59c0 1 0 2 0 2 0 1-1 1-1 1-46 2-71-34-76-42l-4 2c-1 0-1 0-2 0l-13-7c0-1-1-1-1-1l-3-8c-1-3 0-6 3-7l21-8-1-4c-3-22-8-38-20-53-1 1-3 2-4 4-2 2-4 3-4 4-4 3-9 8-14 13-3 3-5 6-9 10-3 3-6 7-10 10l0 1c-4 4-7 7-10 11-2 1-3 4-5 6 0 1-1 2-1 3-1 1-2 3-3 4-1 3-3 5-5 7-2 2-3 4-5 6-3 4-7 8-10 12-4 3-7 7-11 10-3 4-6 7-9 10-1 1-2 2-3 2l-2 3c-1 0-2 1-3 2l-7 6c-1 1-3 3-4 3l-1 1c-1 1-2 1-3 0l-18-17c0-1 0-2 0-3l2-1c0-1 2-3 3-5l6-6c1-1 2-2 2-3l2-2c1-1 2-2 3-3 3-3 6-6 10-9 3-4 7-8 10-11 4-3 8-7 12-10 2-2 4-4 6-5 2-3 4-4 6-5 2-1 3-2 5-3 1-1 2-1 3-2 2-1 4-3 6-4 4-3 8-6 11-10l1 0c4-4 7-7 11-10 3-3 6-6 9-9 5-5 10-10 13-14 1 0 2-2 4-4 1-1 3-3 3-4l-119-110c-7-7-11-16-11-26 0-10 4-19 11-26 6-7 15-10 25-10 10 0 19 3 26 11l96 103 19-21 5-15c0 0 0-1 0-1l71-71c6-5 11-7 16-7 4 0 7 1 10 3 3 1 5 3 7 4l15 16 5 5c3 2 4 4 5 6 6 11 2 21-4 27z m-72 248l-26-56-43 16c5 8 28 41 69 40z m-106-130c-2 1-4 3-4 4-3 3-8 8-13 13-3 3-6 6-10 10-3 3-6 6-10 10l-1 0c-4 3-7 7-11 10-2 2-4 3-7 5-1 1-2 1-3 2-1 0-2 1-4 2-2 2-4 3-6 5-2 1-5 3-6 5-4 3-8 6-12 10-3 3-6 6-10 10-3 4-6 7-9 10-1 1-2 2-3 3l-2 2c-1 1-2 2-2 3l-6 7c-1 1-3 3-4 4l16 15c1-1 2-2 4-3l6-6c1-1 2-2 3-3l2-2c1-1 2-2 4-3 2-2 5-5 9-9 3-3 7-7 10-10 4-4 7-8 10-11 2-2 4-4 5-6 2-2 4-5 5-7 1-1 2-2 2-4 1-1 2-2 2-3 2-2 3-4 5-7 3-4 7-7 10-11l1-1c3-3 6-7 10-10 3-3 6-7 9-10 5-5 10-9 14-13 0 0 2-3 4-4 2-2 3-3 3-3-1-2-2-3-3-4l-4-4c-2 1-3 2-4 4z m-70-164c-6-7-14-10-23-10-9 0-17 3-23 9-6 6-9 14-9 23 0 9 3 17 10 23l125 116c2 2 3 3 5 5 14 15 19 33 23 56l1 6c0 1-1 2-1 2l-22 9c-1 0-1 1-1 1l2 7 12 7 60-24 45-17c1 0 1-1 2 0l16 5c1 1 1 1 1 1l19 46c6-8 27-36 6-76-16-30-46-39-69-41l-4 0c-25-3-41-4-59-24z m197-5l-71 71-5 14c0 1 0 1 0 1l-20 22 17 19c7 7 14 12 21 15l19-17c1 0 1-1 1-1l15-5 71-71c4-4 7-11 5-19l-75 75c-2 2-4 3-6 3-3 0-5-1-7-3-3-4-3-10 0-13l77-77-7-8-77 77c-2 2-4 3-7 3-2 0-4-1-6-3-4-3-4-9 0-13l75-75c-6-2-12-2-20 5z m28 0c-1-1-3-2-5-3l-76 76c-2 2-2 5 0 7 1 1 3 2 4 2 2 0 3-1 4-2l77-76z m20 20l-3-3-77 77c-1 1-1 2-1 4 0 1 0 2 1 3 1 1 2 2 4 2 1 0 3-1 4-2l76-76c-1-2-3-3-4-5z"/>
<glyph glyph-name="user-management-89" unicode="&#96;" d="M284 370c0 16-12 29-28 29-16 0-28-13-28-29 0-15 12-28 28-28 16 0 28 13 28 28z m-48 0c0 11 9 20 20 20 11 0 20-9 20-20 0-10-9-19-20-19-11 0-20 9-20 19z m-34-77l0-25c0-1 0-2 1-3 1-1 2-1 3-1l100 0c2 0 4 2 4 4l0 25c0 27-22 46-54 46-32 0-54-19-54-46z m54 37c21 0 46-10 46-37l0-20-92-1 0 21c0 27 25 37 46 37z m134-110c0 15-13 28-28 28-16 0-28-13-28-28 0-16 12-28 28-28 15 0 28 12 28 28z m-48 0c0 11 9 19 20 19 11 0 19-8 19-19 0-11-8-20-19-20-11 0-20 9-20 20z m74-102l0 24c0 28-22 46-54 46-33 0-54-18-54-46l0-24c0-3 2-5 4-5l100 0c2 0 4 2 4 5z m-9 4l-91 0 0 20c0 28 25 38 46 38 21 0 45-10 45-38l0-20z m-285 98c0-16 13-28 28-28 16 0 28 12 28 28 0 15-12 28-28 28-15 0-28-13-28-28z m48 0c0-11-9-20-20-20-11 0-19 9-19 20 0 11 8 19 19 19 11 0 20-8 20-19z m-70-107l100 0c3 0 4 2 4 5l0 24c0 28-21 46-54 46-32 0-54-18-54-46l0-24c0-3 2-5 4-5z m50 67c21 0 46-10 46-38l0-20-91 0 0 20c0 28 24 38 45 38z m106 75c-2 0-4-2-4-4l0-40-43-32c-2-1-2-4-1-6 1-1 2-2 4-2 1 0 2 0 2 1l42 31 42-31c0-1 1-1 2-1 2 0 3 1 4 2 1 2 1 5-1 6l-43 32 0 40c0 2-2 4-4 4z"/>
<glyph glyph-name="error-95" unicode="&#61;" d="M256 96c-88 0-160 72-160 160 0 88 72 160 160 160 88 0 160-72 160-160 0-88-72-160-160-160z m0 302c-79 0-142-63-142-142 0-79 63-142 142-142 79 0 142 63 142 142 0 79-63 142-142 142z m69-60l13-13-151-151-13 13z m-138 0l151-151-13-13-151 151z"/>
</font>
</defs>
</svg>
